<svg xmlns="http://www.w3.org/2000/svg" xmlns:xlink="http://www.w3.org/1999/xlink" width="2000" zoomAndPan="magnify" viewBox="0 0 1500 1499.999933" height="2000" preserveAspectRatio="xMidYMid meet" version="1.0"><defs><clipPath id="f793bc07b1"><path d="M 629 225.210938 L 1074 225.210938 L 1074 539 L 629 539 Z M 629 225.210938 " clip-rule="nonzero"/></clipPath><clipPath id="991c3c91cc"><path d="M 562 787 L 828 787 L 828 1221.960938 L 562 1221.960938 Z M 562 787 " clip-rule="nonzero"/></clipPath><clipPath id="fc84d42845"><path d="M 484 913 L 569 913 L 569 1221.960938 L 484 1221.960938 Z M 484 913 " clip-rule="nonzero"/></clipPath></defs><path fill="#ffffff" d="M 851.640625 1034.140625 L 632.53125 880.457031 L 632.53125 382.152344 L 851.640625 535.839844 L 851.640625 1034.140625 " fill-opacity="1" fill-rule="nonzero"/><path fill="#0f22a0" d="M 851.640625 1034.140625 L 853.304688 1031.777344 L 635.417969 878.953125 L 635.417969 387.71875 L 848.734375 537.34375 L 848.734375 1034.140625 L 851.640625 1034.140625 L 853.304688 1031.777344 L 851.640625 1034.140625 L 854.535156 1034.140625 L 854.535156 535.839844 C 854.535156 534.898438 854.0625 534.007812 853.304688 533.472656 L 634.183594 379.789062 C 633.300781 379.167969 632.148438 379.089844 631.1875 379.585938 C 630.234375 380.082031 629.625 381.078125 629.625 382.152344 L 629.625 880.457031 C 629.625 881.394531 630.089844 882.289062 630.859375 882.832031 L 849.96875 1036.515625 C 850.847656 1037.140625 852.015625 1037.21875 852.976562 1036.710938 C 853.925781 1036.210938 854.535156 1035.226562 854.535156 1034.140625 L 851.640625 1034.140625 " fill-opacity="1" fill-rule="nonzero"/><path fill="#ffffff" d="M 851.640625 1034.140625 L 1070.738281 880.457031 L 1070.738281 382.152344 L 851.640625 535.839844 L 851.640625 1034.140625 " fill-opacity="1" fill-rule="nonzero"/><path fill="#0f22a0" d="M 851.640625 1034.140625 L 853.304688 1036.515625 L 1072.390625 882.832031 C 1073.160156 882.289062 1073.632812 881.394531 1073.632812 880.457031 L 1073.632812 382.152344 C 1073.632812 381.078125 1073.023438 380.082031 1072.074219 379.585938 C 1071.113281 379.089844 1069.945312 379.167969 1069.066406 379.789062 L 849.96875 533.472656 C 849.199219 534.007812 848.734375 534.898438 848.734375 535.839844 L 848.734375 1034.140625 C 848.734375 1035.226562 849.34375 1036.210938 850.296875 1036.710938 C 851.257812 1037.21875 852.410156 1037.140625 853.304688 1036.515625 L 851.640625 1034.140625 L 854.535156 1034.140625 L 854.535156 537.34375 L 1067.832031 387.71875 L 1067.832031 878.953125 L 849.96875 1031.777344 L 851.640625 1034.140625 L 854.535156 1034.140625 L 851.640625 1034.140625 " fill-opacity="1" fill-rule="nonzero"/><path fill="#ffffff" d="M 851.640625 228.320312 L 632.53125 382.289062 L 851.640625 535.972656 L 1070.738281 382.289062 L 851.640625 228.320312 " fill-opacity="1" fill-rule="nonzero"/><g clip-path="url(#f793bc07b1)"><path fill="#0f22a0" d="M 851.640625 228.320312 L 849.96875 225.957031 L 630.859375 379.914062 C 630.089844 380.457031 629.625 381.351562 629.636719 382.289062 C 629.636719 383.226562 630.089844 384.121094 630.859375 384.652344 L 849.96875 538.339844 C 850.960938 539.039062 852.296875 539.039062 853.304688 538.339844 L 1072.390625 384.652344 C 1073.160156 384.121094 1073.625 383.226562 1073.625 382.289062 C 1073.632812 381.351562 1073.171875 380.457031 1072.402344 379.914062 L 853.304688 225.957031 C 852.296875 225.253906 850.972656 225.253906 849.96875 225.957031 L 851.640625 228.320312 L 849.96875 230.695312 L 1065.695312 382.277344 L 851.628906 532.433594 L 637.566406 382.277344 L 853.304688 230.695312 L 851.640625 228.320312 L 849.96875 230.695312 L 851.640625 228.320312 " fill-opacity="1" fill-rule="nonzero"/></g><path fill="#0f22a0" d="M 869.738281 580.210938 L 1070.738281 439.195312 L 1070.738281 416.097656 L 869.738281 557.105469 L 869.738281 580.210938 " fill-opacity="1" fill-rule="nonzero"/><path fill="#0f22a0" d="M 869.738281 580.210938 L 871.402344 582.585938 L 1072.390625 441.570312 C 1073.171875 441.027344 1073.625 440.144531 1073.625 439.195312 L 1073.625 416.097656 C 1073.625 415.011719 1073.023438 414.027344 1072.074219 413.53125 C 1071.113281 413.023438 1069.945312 413.101562 1069.066406 413.722656 L 868.078125 554.726562 C 867.308594 555.269531 866.84375 556.164062 866.84375 557.105469 L 866.84375 580.210938 C 866.84375 581.296875 867.441406 582.28125 868.402344 582.78125 C 869.367188 583.277344 870.519531 583.210938 871.402344 582.585938 L 869.738281 580.210938 L 872.632812 580.210938 L 872.632812 558.609375 L 1067.84375 421.664062 L 1067.84375 437.691406 L 868.078125 577.847656 L 869.738281 580.210938 L 872.632812 580.210938 L 869.738281 580.210938 " fill-opacity="1" fill-rule="nonzero"/><path fill="#0f22a0" d="M 869.738281 639.539062 L 1070.738281 498.523438 L 1070.738281 475.414062 L 869.738281 616.417969 L 869.738281 639.539062 " fill-opacity="1" fill-rule="nonzero"/><path fill="#0f22a0" d="M 869.738281 639.539062 L 871.402344 641.902344 L 1072.390625 500.886719 C 1073.171875 500.34375 1073.625 499.472656 1073.625 498.523438 L 1073.625 475.414062 C 1073.625 474.339844 1073.023438 473.34375 1072.074219 472.847656 C 1071.113281 472.347656 1069.945312 472.429688 1069.066406 473.050781 L 868.078125 614.054688 C 867.308594 614.585938 866.84375 615.480469 866.84375 616.417969 L 866.84375 639.539062 C 866.84375 640.613281 867.441406 641.609375 868.402344 642.105469 C 869.367188 642.605469 870.519531 642.527344 871.402344 641.902344 L 869.738281 639.539062 L 872.632812 639.539062 L 872.632812 617.925781 L 1067.84375 480.980469 L 1067.84375 497.007812 L 868.078125 637.164062 L 869.738281 639.539062 L 872.632812 639.539062 L 869.738281 639.539062 " fill-opacity="1" fill-rule="nonzero"/><path fill="#0f22a0" d="M 869.738281 698.855469 L 1070.738281 557.839844 L 1070.738281 534.753906 L 869.738281 675.746094 L 869.738281 698.855469 " fill-opacity="1" fill-rule="nonzero"/><path fill="#0f22a0" d="M 869.738281 698.855469 L 871.402344 701.21875 L 1072.390625 560.214844 C 1073.171875 559.671875 1073.625 558.789062 1073.625 557.839844 L 1073.625 534.753906 C 1073.625 533.667969 1073.023438 532.683594 1072.074219 532.183594 C 1071.113281 531.6875 1069.945312 531.753906 1069.066406 532.378906 L 868.078125 673.371094 C 867.308594 673.914062 866.84375 674.808594 866.84375 675.746094 L 866.84375 698.855469 C 866.84375 699.929688 867.441406 700.925781 868.402344 701.421875 C 869.367188 701.921875 870.519531 701.839844 871.402344 701.21875 L 869.738281 698.855469 L 872.632812 698.855469 L 872.632812 677.25 L 1067.84375 540.316406 L 1067.84375 556.335938 L 868.078125 696.480469 L 869.738281 698.855469 L 872.632812 698.855469 L 869.738281 698.855469 " fill-opacity="1" fill-rule="nonzero"/><path fill="#0f22a0" d="M 869.738281 758.171875 L 1070.738281 617.167969 L 1070.738281 594.046875 L 869.738281 735.0625 L 869.738281 758.171875 " fill-opacity="1" fill-rule="nonzero"/><path fill="#0f22a0" d="M 869.738281 758.171875 L 871.402344 760.546875 L 1072.390625 619.53125 C 1073.171875 618.988281 1073.625 618.117188 1073.625 617.167969 L 1073.625 594.046875 C 1073.625 592.972656 1073.023438 591.976562 1072.074219 591.476562 C 1071.113281 590.980469 1069.945312 591.058594 1069.066406 591.683594 L 868.078125 732.699219 C 867.308594 733.230469 866.84375 734.125 866.84375 735.0625 L 866.84375 758.171875 C 866.84375 759.257812 867.441406 760.242188 868.402344 760.738281 C 869.367188 761.238281 870.519531 761.167969 871.402344 760.546875 L 869.738281 758.171875 L 872.632812 758.171875 L 872.632812 736.566406 L 1067.832031 599.621094 L 1067.832031 615.660156 L 868.078125 755.808594 L 869.738281 758.171875 L 872.632812 758.171875 L 869.738281 758.171875 " fill-opacity="1" fill-rule="nonzero"/><path fill="#0f22a0" d="M 869.738281 817.488281 L 1070.738281 676.480469 L 1070.738281 653.382812 L 869.738281 794.390625 L 869.738281 817.488281 " fill-opacity="1" fill-rule="nonzero"/><path fill="#0f22a0" d="M 869.738281 817.488281 L 871.402344 819.851562 L 1072.390625 678.855469 C 1073.171875 678.3125 1073.625 677.433594 1073.625 676.480469 L 1073.625 653.382812 C 1073.625 652.296875 1073.023438 651.316406 1072.074219 650.816406 C 1071.113281 650.320312 1069.945312 650.386719 1069.066406 651.007812 L 868.078125 792.015625 C 867.308594 792.558594 866.84375 793.449219 866.84375 794.390625 L 866.84375 817.488281 C 866.84375 818.5625 867.441406 819.558594 868.402344 820.054688 C 869.367188 820.550781 870.519531 820.472656 871.402344 819.851562 L 869.738281 817.488281 L 872.632812 817.488281 L 872.632812 795.894531 L 1067.84375 658.949219 L 1067.84375 674.976562 L 868.078125 815.113281 L 869.738281 817.488281 L 872.632812 817.488281 L 869.738281 817.488281 " fill-opacity="1" fill-rule="nonzero"/><path fill="#0f22a0" d="M 869.738281 876.8125 L 1070.738281 735.796875 L 1070.738281 712.699219 L 869.738281 853.707031 L 869.738281 876.8125 " fill-opacity="1" fill-rule="nonzero"/><path fill="#0f22a0" d="M 869.738281 876.8125 L 871.402344 879.191406 L 1072.390625 738.171875 C 1073.171875 737.628906 1073.625 736.746094 1073.625 735.796875 L 1073.625 712.699219 C 1073.625 711.625 1073.023438 710.628906 1072.074219 710.132812 C 1071.113281 709.636719 1069.945312 709.714844 1069.066406 710.335938 L 868.078125 851.332031 C 867.308594 851.875 866.84375 852.765625 866.84375 853.707031 L 866.84375 876.8125 C 866.84375 877.898438 867.441406 878.882812 868.402344 879.382812 C 869.367188 879.890625 870.519531 879.8125 871.402344 879.191406 L 869.738281 876.8125 L 872.632812 876.8125 L 872.632812 855.210938 L 1067.832031 718.277344 L 1067.832031 734.292969 L 868.078125 874.449219 L 869.738281 876.8125 L 872.632812 876.8125 L 869.738281 876.8125 " fill-opacity="1" fill-rule="nonzero"/><path fill="#0f22a0" d="M 851.640625 495.910156 L 702.761719 391.507812 L 702.761719 373.332031 L 851.640625 477.765625 L 851.640625 495.910156 " fill-opacity="1" fill-rule="nonzero"/><path fill="#0f22a0" d="M 851.640625 495.910156 L 853.292969 493.546875 L 705.660156 390.003906 L 705.660156 378.894531 L 848.746094 479.269531 L 848.746094 495.910156 L 851.640625 495.910156 L 853.292969 493.546875 L 851.640625 495.910156 L 854.527344 495.910156 L 854.527344 477.765625 C 854.527344 476.816406 854.074219 475.933594 853.304688 475.390625 L 704.425781 370.964844 C 703.542969 370.34375 702.390625 370.265625 701.429688 370.761719 C 700.46875 371.261719 699.867188 372.257812 699.867188 373.332031 L 699.867188 391.507812 C 699.867188 392.445312 700.332031 393.339844 701.101562 393.871094 L 849.976562 498.285156 C 850.859375 498.90625 852.015625 498.988281 852.976562 498.476562 C 853.925781 497.980469 854.527344 496.996094 854.527344 495.910156 L 851.640625 495.910156 " fill-opacity="1" fill-rule="nonzero"/><path fill="#0f22a0" d="M 851.640625 495.910156 L 1000.507812 391.507812 L 1000.507812 373.332031 L 851.640625 477.765625 L 851.640625 495.910156 " fill-opacity="1" fill-rule="nonzero"/><path fill="#0f22a0" d="M 851.640625 495.910156 L 853.292969 498.285156 L 1002.160156 393.871094 C 1002.941406 393.328125 1003.390625 392.457031 1003.390625 391.507812 L 1003.390625 373.332031 C 1003.390625 372.257812 1002.792969 371.261719 1001.84375 370.761719 C 1000.882812 370.265625 999.714844 370.34375 998.832031 370.964844 L 849.96875 475.390625 C 849.199219 475.933594 848.746094 476.828125 848.746094 477.765625 L 848.746094 495.910156 C 848.746094 496.996094 849.34375 497.980469 850.296875 498.476562 C 851.257812 498.988281 852.410156 498.90625 853.292969 498.285156 L 851.640625 495.910156 L 854.527344 495.910156 L 854.527344 479.269531 L 997.601562 378.894531 L 997.601562 389.992188 L 849.976562 493.546875 L 851.640625 495.910156 L 854.527344 495.910156 L 851.640625 495.910156 " fill-opacity="1" fill-rule="nonzero"/><path fill="#ffffff" d="M 851.640625 268.847656 L 851.640625 268.835938 L 851.640625 268.847656 L 702.761719 373.421875 L 851.640625 477.835938 L 1000.507812 373.421875 L 851.640625 268.847656 " fill-opacity="1" fill-rule="nonzero"/><path fill="#0f22a0" d="M 851.640625 268.847656 L 854.535156 268.847656 L 854.535156 268.835938 C 854.535156 268.070312 854.21875 267.332031 853.6875 266.789062 C 853.144531 266.246094 852.398438 265.941406 851.640625 265.941406 C 850.871094 265.941406 850.125 266.246094 849.582031 266.789062 C 849.050781 267.332031 848.746094 268.070312 848.746094 268.835938 L 848.746094 268.847656 L 851.640625 268.847656 L 849.96875 266.472656 L 701.101562 371.046875 C 700.332031 371.589844 699.867188 372.480469 699.867188 373.421875 C 699.867188 374.359375 700.332031 375.253906 701.101562 375.785156 L 849.96875 480.210938 C 850.960938 480.910156 852.296875 480.910156 853.304688 480.210938 L 1002.160156 375.785156 C 1002.929688 375.253906 1003.390625 374.359375 1003.390625 373.421875 C 1003.402344 372.480469 1002.941406 371.589844 1002.171875 371.046875 L 853.304688 266.472656 L 851.640625 268.847656 L 854.535156 268.847656 L 851.640625 268.847656 L 849.96875 271.214844 L 995.464844 373.421875 L 851.628906 474.292969 L 707.808594 373.421875 L 853.304688 271.214844 C 854.074219 270.671875 854.535156 269.789062 854.535156 268.847656 L 854.535156 268.835938 C 854.535156 268.070312 854.21875 267.332031 853.6875 266.789062 C 853.144531 266.246094 852.398438 265.941406 851.640625 265.941406 C 850.871094 265.941406 850.125 266.246094 849.582031 266.789062 C 849.050781 267.332031 848.746094 268.070312 848.746094 268.835938 L 848.746094 268.847656 C 848.746094 269.789062 849.199219 270.671875 849.96875 271.214844 L 851.640625 268.847656 " fill-opacity="1" fill-rule="nonzero"/><path fill="#ffffff" d="M 857.773438 320.042969 L 770.199219 381.566406 L 779.328125 388.011719 L 866.886719 326.582031 L 857.773438 320.042969 " fill-opacity="1" fill-rule="nonzero"/><path fill="#0f22a0" d="M 857.773438 320.042969 L 856.109375 317.667969 L 768.527344 379.203125 C 767.757812 379.734375 767.304688 380.625 767.304688 381.566406 C 767.292969 382.503906 767.757812 383.398438 768.527344 383.929688 L 777.664062 390.375 C 778.660156 391.089844 779.996094 391.089844 780.992188 390.386719 L 868.550781 328.945312 C 869.320312 328.414062 869.773438 327.53125 869.785156 326.59375 C 869.785156 325.652344 869.332031 324.773438 868.574219 324.230469 L 859.457031 317.691406 C 858.449219 316.96875 857.117188 316.96875 856.109375 317.667969 L 857.773438 320.042969 L 856.085938 322.394531 L 861.878906 326.546875 L 779.328125 384.472656 L 775.222656 381.578125 L 859.433594 322.40625 L 857.773438 320.042969 L 856.085938 322.394531 L 857.773438 320.042969 " fill-opacity="1" fill-rule="nonzero"/><path fill="#ffffff" d="M 874.320312 331.839844 L 874.320312 331.828125 L 874.320312 331.839844 L 786.738281 393.375 L 795.867188 399.820312 L 883.449219 338.390625 L 874.320312 331.839844 " fill-opacity="1" fill-rule="nonzero"/><path fill="#0f22a0" d="M 874.320312 331.839844 L 877.214844 331.839844 L 877.214844 331.828125 C 877.214844 331.050781 876.910156 330.324219 876.367188 329.78125 C 875.824219 329.226562 875.089844 328.933594 874.320312 328.933594 C 873.550781 328.933594 872.816406 329.238281 872.273438 329.78125 C 871.730469 330.3125 871.425781 331.0625 871.425781 331.828125 L 871.425781 331.839844 L 874.320312 331.839844 L 872.65625 329.476562 L 785.074219 391 C 784.304688 391.542969 783.84375 392.425781 783.84375 393.363281 C 783.84375 394.300781 784.292969 395.195312 785.0625 395.738281 L 794.203125 402.183594 C 795.199219 402.886719 796.53125 402.886719 797.527344 402.183594 L 885.109375 340.765625 C 885.878906 340.222656 886.332031 339.339844 886.34375 338.414062 C 886.34375 337.472656 885.902344 336.59375 885.132812 336.039062 L 876.003906 329.488281 L 874.320312 331.839844 L 877.214844 331.839844 L 874.320312 331.839844 L 872.632812 334.195312 L 878.449219 338.367188 L 795.875 396.28125 L 791.769531 393.375 L 875.984375 334.214844 C 876.75 333.671875 877.214844 332.78125 877.214844 331.839844 L 877.214844 331.828125 C 877.214844 331.050781 876.910156 330.324219 876.367188 329.78125 C 875.824219 329.226562 875.089844 328.933594 874.320312 328.933594 C 873.550781 328.933594 872.816406 329.238281 872.273438 329.78125 C 871.730469 330.3125 871.425781 331.0625 871.425781 331.828125 L 871.425781 331.839844 C 871.425781 332.769531 871.875 333.652344 872.632812 334.195312 L 874.320312 331.839844 " fill-opacity="1" fill-rule="nonzero"/><path fill="#ffffff" d="M 890.867188 343.648438 L 803.261719 405.183594 L 812.414062 411.628906 L 812.414062 411.640625 L 812.414062 411.628906 L 899.996094 350.199219 L 890.867188 343.648438 " fill-opacity="1" fill-rule="nonzero"/><path fill="#0f22a0" d="M 890.867188 343.648438 L 889.207031 341.273438 L 801.601562 402.820312 C 800.832031 403.351562 800.367188 404.246094 800.367188 405.183594 C 800.367188 406.121094 800.832031 407.015625 801.601562 407.558594 L 810.75 413.996094 L 812.414062 411.628906 L 809.519531 411.628906 L 809.519531 411.640625 C 809.519531 412.410156 809.824219 413.15625 810.367188 413.6875 C 810.910156 414.230469 811.644531 414.539062 812.414062 414.539062 C 813.171875 414.539062 813.917969 414.230469 814.460938 413.6875 C 815.003906 413.15625 815.308594 412.410156 815.308594 411.640625 L 815.308594 411.628906 L 812.414062 411.628906 L 814.078125 414.003906 L 901.660156 352.5625 C 902.429688 352.03125 902.878906 351.148438 902.890625 350.210938 C 902.890625 349.273438 902.441406 348.390625 901.683594 347.847656 L 892.554688 341.296875 C 891.558594 340.574219 890.210938 340.574219 889.207031 341.273438 L 890.867188 343.648438 L 889.183594 346.003906 L 894.984375 350.164062 L 810.75 409.265625 C 809.980469 409.796875 809.519531 410.691406 809.519531 411.628906 L 809.519531 411.640625 C 809.519531 412.410156 809.824219 413.15625 810.367188 413.6875 C 810.910156 414.230469 811.644531 414.539062 812.414062 414.539062 C 813.171875 414.539062 813.917969 414.230469 814.460938 413.6875 C 815.003906 413.15625 815.308594 412.410156 815.308594 411.640625 L 815.308594 411.628906 C 815.308594 410.691406 814.847656 409.808594 814.078125 409.265625 L 808.296875 405.195312 L 892.53125 346.015625 L 890.867188 343.648438 L 889.183594 346.003906 L 890.867188 343.648438 " fill-opacity="1" fill-rule="nonzero"/><path fill="#ffffff" d="M 907.40625 355.449219 L 819.84375 417.003906 L 828.949219 423.429688 L 828.949219 423.4375 L 828.949219 423.429688 L 916.542969 361.996094 L 907.40625 355.449219 " fill-opacity="1" fill-rule="nonzero"/><path fill="#0f22a0" d="M 907.40625 355.449219 L 905.742188 353.082031 L 818.183594 414.628906 C 817.414062 415.171875 816.949219 416.054688 816.949219 416.992188 C 816.949219 417.941406 817.402344 418.824219 818.171875 419.367188 L 827.277344 425.792969 L 828.949219 423.429688 L 826.054688 423.429688 L 826.054688 423.4375 C 826.054688 424.195312 826.359375 424.945312 826.902344 425.488281 C 827.445312 426.019531 828.183594 426.335938 828.949219 426.335938 C 829.707031 426.335938 830.457031 426.019531 831 425.488281 C 831.542969 424.945312 831.847656 424.195312 831.847656 423.4375 L 831.847656 423.429688 L 828.949219 423.429688 L 830.613281 425.792969 L 918.207031 364.371094 C 918.976562 363.828125 919.429688 362.957031 919.441406 362.019531 C 919.441406 361.082031 918.988281 360.1875 918.230469 359.644531 L 909.089844 353.09375 C 908.09375 352.371094 906.75 352.371094 905.742188 353.082031 L 907.40625 355.449219 L 905.71875 357.800781 L 911.535156 361.972656 L 827.289062 421.050781 C 826.519531 421.59375 826.054688 422.488281 826.054688 423.429688 L 826.054688 423.4375 C 826.054688 424.195312 826.359375 424.945312 826.902344 425.488281 C 827.445312 426.019531 828.183594 426.335938 828.949219 426.335938 C 829.707031 426.335938 830.457031 426.019531 831 425.488281 C 831.542969 424.945312 831.847656 424.195312 831.847656 423.4375 L 831.847656 423.429688 C 831.847656 422.488281 831.382812 421.59375 830.625 421.0625 L 824.867188 417.003906 L 909.066406 357.824219 L 907.40625 355.449219 L 905.71875 357.800781 L 907.40625 355.449219 " fill-opacity="1" fill-rule="nonzero"/><path fill="#ffffff" d="M 923.964844 367.269531 L 923.941406 367.269531 L 836.382812 428.800781 L 845.5 435.238281 L 933.082031 373.804688 L 923.964844 367.269531 " fill-opacity="1" fill-rule="nonzero"/><path fill="#0f22a0" d="M 923.964844 367.269531 L 923.964844 364.371094 L 923.941406 364.371094 C 923.355469 364.371094 922.765625 364.554688 922.28125 364.890625 L 834.71875 426.4375 C 833.949219 426.980469 833.488281 427.863281 833.488281 428.800781 C 833.488281 429.738281 833.949219 430.621094 834.707031 431.164062 L 843.824219 437.601562 C 844.832031 438.3125 846.15625 438.3125 847.160156 437.613281 L 934.746094 376.167969 C 935.511719 375.636719 935.964844 374.757812 935.976562 373.816406 C 935.976562 372.878906 935.523438 371.996094 934.765625 371.453125 L 925.648438 364.914062 C 925.152344 364.554688 924.5625 364.371094 923.964844 364.371094 L 923.964844 367.269531 L 922.28125 369.621094 L 928.070312 373.773438 L 845.5 431.695312 L 841.414062 428.8125 L 925.617188 369.632812 L 923.941406 367.269531 L 923.941406 370.164062 L 923.964844 370.164062 L 923.964844 367.269531 L 922.28125 369.621094 L 923.964844 367.269531 " fill-opacity="1" fill-rule="nonzero"/><path fill="#ffffff" d="M 596.664062 1205.835938 C 647.554688 1169.785156 748.460938 1098.515625 799.132812 1064.039062 C 825.105469 1046.347656 825.105469 1022.105469 825.105469 1006.269531 C 825.105469 961.910156 825.105469 858.601562 825.105469 815.472656 C 825.105469 800.519531 820.648438 790.203125 820.648438 790.203125 C 765.15625 829.160156 565.761719 968.390625 565.761719 968.390625 C 565.761719 968.390625 565.761719 1158.417969 565.761719 1218.207031 C 565.761719 1218.207031 577.773438 1219.214844 596.664062 1205.835938 " fill-opacity="1" fill-rule="nonzero"/><g clip-path="url(#991c3c91cc)"><path fill="#0f22a0" d="M 596.664062 1205.835938 L 598.339844 1208.199219 C 649.214844 1172.148438 750.125 1100.878906 800.753906 1066.425781 C 814.269531 1057.25 821.226562 1046.109375 824.617188 1035.328125 C 828.023438 1024.5625 827.988281 1014.199219 828 1006.269531 C 827.988281 961.910156 827.988281 858.601562 828 815.472656 C 827.988281 799.945312 823.398438 789.289062 823.304688 789.050781 C 822.957031 788.257812 822.265625 787.648438 821.441406 787.410156 C 820.601562 787.171875 819.699219 787.332031 818.984375 787.828125 C 791.238281 807.308594 727.523438 851.851562 670.730469 891.53125 C 642.339844 911.371094 615.679688 929.988281 596.121094 943.652344 C 586.347656 950.484375 578.339844 956.070312 572.773438 959.964844 C 567.210938 963.84375 564.109375 966.015625 564.097656 966.015625 C 563.320312 966.558594 562.867188 967.441406 562.867188 968.390625 C 562.867188 968.402344 562.867188 971.363281 562.867188 976.667969 C 562.867188 1013.859375 562.867188 1165.882812 562.867188 1218.207031 C 562.867188 1219.714844 564.019531 1220.96875 565.511719 1221.09375 C 565.59375 1221.09375 565.886719 1221.117188 566.371094 1221.117188 C 569.585938 1221.128906 581.472656 1220.15625 598.339844 1208.199219 L 594.988281 1203.46875 C 579.03125 1214.757812 568.476562 1215.3125 566.371094 1215.324219 L 565.976562 1215.324219 L 565.910156 1216.386719 L 566 1215.324219 L 565.976562 1215.324219 L 565.910156 1216.386719 L 566 1215.324219 L 565.761719 1218.207031 L 568.65625 1218.207031 C 568.65625 1188.3125 568.65625 1125.851562 568.65625 1070.878906 C 568.65625 1043.382812 568.65625 1017.761719 568.65625 999.019531 C 568.65625 989.644531 568.65625 981.984375 568.65625 976.667969 C 568.65625 971.363281 568.65625 968.402344 568.65625 968.390625 L 565.761719 968.390625 L 567.414062 970.765625 C 567.414062 970.765625 766.808594 831.535156 822.3125 792.570312 L 820.648438 790.203125 L 817.992188 791.347656 L 817.992188 791.359375 C 818.160156 791.742188 822.210938 801.539062 822.199219 815.472656 C 822.199219 858.601562 822.199219 961.910156 822.199219 1006.269531 C 822.210938 1014.175781 822.175781 1023.859375 819.085938 1033.585938 C 815.988281 1043.316406 809.960938 1053.132812 797.496094 1061.640625 C 746.785156 1096.148438 645.890625 1167.410156 594.988281 1203.46875 L 596.664062 1205.835938 " fill-opacity="1" fill-rule="nonzero"/></g><path fill="#0f22a0" d="M 545.886719 1213.808594 C 531.792969 1204.386719 513.121094 1191.480469 500.777344 1182.441406 C 484.523438 1170.53125 487.136719 1157.433594 487.136719 1148.191406 C 487.136719 1104.136719 487.136719 990.671875 487.136719 939.261719 C 487.136719 923.316406 491.234375 916.210938 491.234375 916.210938 L 565.738281 968.390625 C 565.738281 968.390625 565.738281 1163.304688 565.738281 1218.207031 C 565.738281 1218.207031 556.871094 1221.136719 545.886719 1213.808594 " fill-opacity="1" fill-rule="nonzero"/><g clip-path="url(#fc84d42845)"><path fill="#0f22a0" d="M 545.886719 1213.808594 L 547.496094 1211.398438 C 533.433594 1202 514.769531 1189.09375 502.5 1180.113281 C 496.695312 1175.847656 493.652344 1171.640625 491.945312 1167.570312 C 490.238281 1163.496094 489.875 1159.46875 489.875 1155.542969 C 489.875 1153.023438 490.035156 1150.566406 490.035156 1148.191406 C 490.035156 1104.136719 490.035156 990.671875 490.035156 939.261719 C 490.035156 931.539062 491.027344 926.039062 491.980469 922.511719 C 492.464844 920.757812 492.929688 919.492188 493.269531 918.6875 C 493.4375 918.292969 493.574219 918.011719 493.652344 917.828125 L 493.742188 917.660156 L 493.753906 917.636719 L 492.601562 916.992188 L 493.742188 917.660156 L 493.753906 917.636719 L 492.601562 916.992188 L 493.742188 917.660156 L 491.234375 916.210938 L 489.582031 918.574219 L 564.089844 970.765625 L 565.738281 968.390625 L 562.84375 968.390625 C 562.84375 968.390625 562.84375 1163.304688 562.84375 1218.207031 L 565.738281 1218.207031 L 564.835938 1215.460938 L 565.320312 1216.917969 L 564.855469 1215.449219 L 564.835938 1215.460938 L 565.320312 1216.917969 L 564.855469 1215.449219 C 564.855469 1215.449219 564.519531 1215.5625 563.863281 1215.664062 C 563.207031 1215.777344 562.253906 1215.890625 561.066406 1215.890625 C 557.902344 1215.878906 553.082031 1215.132812 547.496094 1211.398438 L 544.28125 1216.21875 C 550.875 1220.628906 556.949219 1221.691406 561.066406 1221.679688 C 564.371094 1221.679688 566.429688 1221.023438 566.65625 1220.957031 C 567.84375 1220.5625 568.636719 1219.453125 568.636719 1218.207031 C 568.636719 1190.757812 568.636719 1128.296875 568.636719 1072.714844 C 568.636719 1044.910156 568.636719 1018.835938 568.636719 999.710938 C 568.636719 990.140625 568.636719 982.3125 568.636719 976.875 C 568.636719 971.433594 568.636719 968.402344 568.636719 968.390625 C 568.636719 967.441406 568.183594 966.570312 567.402344 966.027344 L 492.894531 913.835938 C 492.226562 913.371094 491.402344 913.203125 490.609375 913.382812 C 489.808594 913.566406 489.140625 914.050781 488.734375 914.761719 C 488.484375 915.160156 484.242188 922.816406 484.242188 939.261719 C 484.242188 990.671875 484.242188 1104.136719 484.242188 1148.191406 C 484.242188 1150.308594 484.09375 1152.796875 484.082031 1155.542969 C 484.082031 1159.808594 484.480469 1164.71875 486.59375 1169.796875 C 488.710938 1174.886719 492.566406 1180.023438 499.070312 1184.785156 C 511.46875 1193.855469 530.15625 1206.773438 544.28125 1216.21875 L 545.886719 1213.808594 " fill-opacity="1" fill-rule="nonzero"/></g><path fill="#0f22a0" d="M 746.390625 731.238281 C 746.390625 731.238281 784.710938 759.394531 804.9375 772.457031 C 814.8125 778.835938 820.648438 790.203125 820.648438 790.203125 C 757.171875 834.75 565.820312 968.421875 565.820312 968.421875 C 565.820312 968.421875 504.230469 925.292969 491.234375 916.210938 C 491.234375 916.210938 494.015625 909.0625 503.640625 902.039062 C 565.367188 857.15625 746.390625 731.238281 746.390625 731.238281 " fill-opacity="1" fill-rule="nonzero"/><path fill="#0f22a0" d="M 746.390625 731.238281 L 744.671875 733.570312 C 744.707031 733.59375 782.992188 761.722656 803.363281 774.890625 C 807.867188 777.785156 811.609375 781.980469 814.167969 785.441406 C 815.445312 787.171875 816.441406 788.722656 817.097656 789.820312 C 817.4375 790.375 817.683594 790.804688 817.84375 791.097656 L 818.023438 791.425781 L 818.058594 791.503906 L 818.070312 791.527344 L 820.648438 790.203125 L 818.984375 787.828125 C 787.246094 810.101562 723.542969 854.65625 667.765625 893.644531 C 639.882812 913.132812 613.980469 931.242188 595.046875 944.464844 C 585.589844 951.082031 577.863281 956.480469 572.503906 960.222656 C 567.152344 963.96875 564.167969 966.046875 564.15625 966.046875 L 565.820312 968.421875 L 567.480469 966.058594 C 567.480469 966.058594 505.890625 922.917969 492.894531 913.835938 L 491.234375 916.210938 L 493.9375 917.253906 L 492.804688 916.8125 L 493.9375 917.273438 L 493.9375 917.253906 L 492.804688 916.8125 L 493.9375 917.273438 C 493.957031 917.207031 496.558594 910.792969 505.347656 904.378906 C 536.160156 881.972656 596.855469 839.261719 649.828125 802.183594 C 676.304688 783.632812 700.863281 766.496094 718.800781 753.984375 C 727.761719 747.730469 735.078125 742.640625 740.148438 739.113281 C 745.214844 735.582031 748.03125 733.613281 748.042969 733.613281 L 746.390625 731.238281 L 744.671875 733.570312 L 746.390625 731.238281 L 744.738281 728.863281 C 744.726562 728.863281 563.726562 854.769531 501.933594 899.695312 C 491.753906 907.117188 488.675781 914.796875 488.539062 915.160156 C 488.054688 916.402344 488.484375 917.816406 489.582031 918.574219 C 496.074219 923.121094 514.714844 936.175781 531.738281 948.097656 C 548.761719 960.019531 564.15625 970.800781 564.15625 970.800781 C 565.152344 971.5 566.476562 971.5 567.480469 970.800781 C 567.480469 970.800781 758.820312 837.125 822.3125 792.570312 C 823.5 791.742188 823.882812 790.171875 823.226562 788.882812 C 823.171875 788.78125 821.644531 785.816406 818.828125 781.992188 C 815.988281 778.179688 811.882812 773.507812 806.5 770.027344 C 796.476562 763.554688 781.851562 753.25 769.757812 744.597656 C 763.71875 740.265625 758.300781 736.339844 754.398438 733.5 C 750.496094 730.664062 748.109375 728.910156 748.109375 728.898438 C 747.101562 728.164062 745.757812 728.152344 744.738281 728.863281 L 746.390625 731.238281 " fill-opacity="1" fill-rule="nonzero"/><path fill="#0f22a0" d="M 661.636719 1012.761719 C 661.636719 989.609375 684.484375 953.367188 703.398438 940.292969 C 722.386719 927.160156 745.484375 930.949219 745.484375 954.082031 C 745.484375 970.492188 735 991.726562 721.914062 1007.617188 C 722.625 1031.472656 723.023438 1043.441406 723.769531 1067.328125 C 708.824219 1077.722656 700.976562 1083.039062 685.421875 1093.976562 L 685.503906 1032.648438 C 672.03125 1035.285156 661.636719 1029.175781 661.636719 1012.761719 " fill-opacity="1" fill-rule="nonzero"/><path fill="#0f22a0" d="M 661.636719 1012.761719 L 664.53125 1012.761719 C 664.53125 1007.449219 665.867188 1001.113281 668.230469 994.484375 C 671.769531 984.519531 677.585938 973.851562 684.222656 964.542969 C 690.863281 955.246094 698.375 947.28125 705.046875 942.679688 C 711.800781 937.996094 719.050781 935.667969 725.214844 935.679688 C 730.304688 935.6875 734.570312 937.214844 737.578125 940.125 C 740.585938 943.03125 742.566406 947.464844 742.589844 954.082031 C 742.601562 961.671875 740.113281 970.765625 735.972656 979.847656 C 731.832031 988.929688 726.0625 998.023438 719.671875 1005.773438 C 719.230469 1006.316406 718.996094 1006.996094 719.015625 1007.695312 C 719.730469 1031.5625 720.125 1043.53125 720.871094 1067.417969 L 723.769531 1067.328125 L 722.117188 1064.941406 C 707.1875 1075.335938 699.335938 1080.652344 683.761719 1091.601562 L 685.421875 1093.976562 L 688.320312 1093.976562 L 688.398438 1032.648438 C 688.398438 1031.777344 688.011719 1030.964844 687.347656 1030.410156 C 686.679688 1029.855469 685.796875 1029.640625 684.949219 1029.796875 C 683.105469 1030.160156 681.351562 1030.339844 679.710938 1030.339844 C 675.003906 1030.328125 671.386719 1028.9375 668.816406 1026.246094 C 666.25 1023.542969 664.542969 1019.257812 664.53125 1012.761719 L 658.738281 1012.761719 C 658.730469 1020.242188 660.777344 1026.191406 664.621094 1030.226562 C 668.445312 1034.289062 673.863281 1036.15625 679.710938 1036.132812 C 681.769531 1036.132812 683.886719 1035.917969 686.054688 1035.488281 L 685.503906 1032.648438 L 682.605469 1032.636719 L 682.527344 1093.964844 C 682.527344 1095.050781 683.128906 1096.046875 684.089844 1096.546875 C 685.050781 1097.042969 686.203125 1096.964844 687.085938 1096.34375 C 702.628906 1085.414062 710.464844 1080.109375 725.417969 1069.703125 C 726.222656 1069.136719 726.6875 1068.210938 726.664062 1067.238281 C 725.917969 1043.335938 725.519531 1031.382812 724.808594 1007.527344 L 721.914062 1007.617188 L 724.140625 1009.460938 C 730.847656 1001.316406 736.867188 991.847656 741.242188 982.246094 C 745.609375 972.632812 748.371094 962.902344 748.382812 954.082031 C 748.390625 946.300781 745.902344 940.089844 741.605469 935.949219 C 737.320312 931.808594 731.449219 929.875 725.214844 929.886719 C 717.613281 929.898438 709.347656 932.667969 701.757812 937.917969 C 691.757812 944.851562 681.203125 957.40625 672.9375 971.273438 C 668.816406 978.207031 665.289062 985.46875 662.765625 992.539062 C 660.265625 999.621094 658.738281 1006.496094 658.738281 1012.761719 L 661.636719 1012.761719 " fill-opacity="1" fill-rule="nonzero"/><path fill="#0f22a0" d="M 750.949219 790.746094 C 750.949219 790.746094 750.9375 790.746094 750.9375 790.746094 L 750.15625 790.726562 C 745.382812 790.53125 740.804688 789.652344 735.429688 785.738281 C 732.917969 783.894531 731.359375 782.050781 730.40625 780.296875 C 729.457031 778.542969 729.09375 776.867188 729.085938 775.238281 C 729.085938 773.101562 729.75 771.007812 730.746094 769.234375 C 731.730469 767.480469 733.066406 766.054688 734.0625 765.375 L 734.074219 765.367188 C 734.851562 764.8125 735.304688 764.484375 735.589844 764.269531 L 736.007812 763.941406 C 736.085938 763.882812 735.996094 763.941406 736.277344 763.746094 C 736.539062 763.578125 737.046875 763.261719 737.996094 762.652344 L 738.019531 762.640625 C 741.878906 760.105469 747.226562 757.886719 753.074219 757.886719 C 753.085938 757.886719 753.097656 757.886719 753.109375 757.886719 C 757.578125 757.898438 762.382812 759.121094 767.394531 762.59375 C 770.753906 764.914062 772.8125 767.085938 774.011719 768.960938 C 775.199219 770.851562 775.574219 772.421875 775.585938 773.859375 C 775.597656 776.246094 774.398438 778.484375 773.039062 780.171875 C 772.371094 781.007812 771.683594 781.675781 771.171875 782.128906 L 770.585938 782.625 L 770.4375 782.738281 L 770.414062 782.761719 L 770.085938 783.023438 C 769.953125 783.15625 767.824219 785.136719 764.398438 787.039062 C 760.960938 788.9375 756.277344 790.746094 750.949219 790.746094 " fill-opacity="1" fill-rule="nonzero"/><path fill="#0f22a0" d="M 750.9375 796.527344 C 750.609375 796.527344 750.292969 796.527344 749.964844 796.515625 L 749.953125 796.515625 C 744.546875 796.347656 738.359375 795.101562 732.003906 790.410156 C 728.925781 788.15625 726.730469 785.667969 725.316406 783.066406 C 723.902344 780.464844 723.292969 777.761719 723.292969 775.238281 C 723.304688 771.902344 724.3125 768.882812 725.703125 766.394531 C 727.117188 763.90625 728.878906 761.949219 730.734375 760.636719 L 730.722656 760.648438 C 731.472656 760.105469 731.878906 759.8125 732.105469 759.640625 L 732.535156 759.300781 C 732.953125 758.996094 733.167969 758.871094 734.851562 757.785156 C 739.445312 754.789062 745.789062 752.109375 753.109375 752.097656 C 753.121094 752.097656 753.144531 752.097656 753.15625 752.097656 C 758.707031 752.097656 764.78125 753.726562 770.6875 757.832031 C 774.511719 760.46875 777.167969 763.136719 778.898438 765.851562 C 780.628906 768.554688 781.386719 771.328125 781.375 773.859375 C 781.363281 778.160156 779.375 781.539062 777.554688 783.800781 C 775.992188 785.726562 774.488281 786.9375 773.96875 787.320312 C 773.378906 787.875 771.128906 789.875 767.585938 791.890625 C 763.550781 794.1875 757.792969 796.527344 750.9375 796.527344 M 750.15625 790.726562 L 750.9375 790.746094 C 750.9375 790.746094 750.949219 790.746094 750.949219 790.746094 C 756.277344 790.746094 760.960938 788.9375 764.398438 787.039062 C 767.824219 785.136719 769.953125 783.15625 770.085938 783.023438 L 770.414062 782.761719 L 770.4375 782.738281 L 770.585938 782.625 L 771.171875 782.128906 C 771.683594 781.675781 772.371094 781.007812 773.039062 780.171875 C 774.398438 778.484375 775.597656 776.246094 775.585938 773.859375 C 775.574219 772.421875 775.199219 770.851562 774.011719 768.960938 C 772.8125 767.085938 770.753906 764.914062 767.394531 762.59375 C 762.382812 759.121094 757.578125 757.898438 753.109375 757.886719 C 753.097656 757.886719 753.085938 757.886719 753.074219 757.886719 C 747.226562 757.886719 741.878906 760.105469 738.019531 762.640625 L 737.996094 762.652344 C 737.046875 763.261719 736.539062 763.578125 736.277344 763.746094 C 735.996094 763.941406 736.085938 763.882812 736.007812 763.941406 L 735.589844 764.269531 C 735.304688 764.484375 734.851562 764.8125 734.074219 765.367188 L 734.0625 765.375 C 733.066406 766.054688 731.730469 767.480469 730.746094 769.234375 C 729.75 771.007812 729.085938 773.101562 729.085938 775.238281 C 729.09375 776.867188 729.457031 778.542969 730.40625 780.296875 C 731.359375 782.050781 732.917969 783.894531 735.429688 785.738281 C 740.804688 789.652344 745.382812 790.53125 750.15625 790.726562 " fill-opacity="1" fill-rule="nonzero"/><path fill="#0f22a0" d="M 560.851562 934.738281 C 560.839844 934.738281 560.839844 934.738281 560.832031 934.738281 L 560.074219 934.726562 C 555.320312 934.523438 550.742188 933.628906 545.335938 929.71875 C 542.835938 927.882812 541.273438 926.03125 540.324219 924.289062 C 539.371094 922.535156 539.011719 920.859375 539.011719 919.230469 C 539 917.09375 539.667969 915 540.664062 913.226562 C 541.648438 911.449219 542.980469 910.023438 543.976562 909.324219 L 543.964844 909.335938 C 544.734375 908.792969 545.175781 908.464844 545.457031 908.257812 L 545.867188 907.953125 C 545.945312 907.898438 545.898438 907.921875 546.195312 907.738281 C 546.464844 907.558594 546.972656 907.242188 547.9375 906.621094 L 547.945312 906.609375 C 551.828125 904.074219 557.164062 901.867188 563.003906 901.867188 C 563.011719 901.867188 563.023438 901.867188 563.035156 901.867188 C 567.503906 901.878906 572.289062 903.101562 577.300781 906.5625 C 580.671875 908.894531 582.730469 911.066406 583.929688 912.953125 C 585.125 914.84375 585.5 916.4375 585.5 917.875 C 585.523438 920.261719 584.324219 922.5 582.964844 924.1875 C 582.300781 925.023438 581.609375 925.691406 581.113281 926.140625 L 580.523438 926.640625 L 580.375 926.753906 L 580.351562 926.765625 L 580.035156 927.023438 C 579.890625 927.160156 577.761719 929.140625 574.3125 931.039062 C 570.875 932.941406 566.179688 934.738281 560.851562 934.738281 " fill-opacity="1" fill-rule="nonzero"/><path fill="#0f22a0" d="M 560.832031 940.53125 C 560.511719 940.53125 560.195312 940.519531 559.878906 940.519531 L 559.859375 940.519531 C 554.460938 940.339844 548.296875 939.082031 541.917969 934.386719 C 538.839844 932.136719 536.648438 929.648438 535.234375 927.058594 C 533.820312 924.457031 533.207031 921.765625 533.21875 919.230469 C 533.21875 915.894531 534.226562 912.875 535.617188 910.386719 C 537.019531 907.910156 538.773438 905.941406 540.605469 904.617188 L 540.628906 904.59375 C 541.375 904.0625 541.792969 903.769531 542.019531 903.597656 L 542.496094 903.25 C 542.890625 902.964844 543.105469 902.839844 544.800781 901.753906 C 549.394531 898.769531 555.730469 896.089844 563.035156 896.078125 C 563.058594 896.078125 563.070312 896.078125 563.082031 896.078125 C 568.636719 896.078125 574.699219 897.695312 580.589844 901.800781 C 584.425781 904.449219 587.082031 907.128906 588.8125 909.84375 C 590.542969 912.558594 591.300781 915.328125 591.292969 917.875 C 591.28125 922.160156 589.300781 925.542969 587.480469 927.816406 C 585.917969 929.75 584.402344 930.960938 583.90625 931.347656 C 583.316406 931.886719 581.054688 933.878906 577.503906 935.894531 C 573.453125 938.1875 567.683594 940.519531 560.832031 940.53125 M 560.074219 934.726562 L 560.832031 934.738281 C 560.839844 934.738281 560.839844 934.738281 560.851562 934.738281 C 566.179688 934.738281 570.875 932.941406 574.3125 931.039062 C 577.761719 929.140625 579.890625 927.160156 580.035156 927.023438 L 580.351562 926.765625 L 580.375 926.753906 L 580.523438 926.640625 L 581.113281 926.140625 C 581.609375 925.691406 582.300781 925.023438 582.964844 924.1875 C 584.324219 922.5 585.523438 920.261719 585.5 917.875 C 585.5 916.4375 585.125 914.84375 583.929688 912.953125 C 582.730469 911.066406 580.671875 908.894531 577.300781 906.5625 C 572.289062 903.101562 567.503906 901.878906 563.035156 901.867188 C 563.023438 901.867188 563.011719 901.867188 563.003906 901.867188 C 557.164062 901.867188 551.828125 904.074219 547.945312 906.609375 L 547.9375 906.621094 C 546.972656 907.242188 546.464844 907.558594 546.195312 907.738281 C 545.898438 907.921875 545.945312 907.898438 545.867188 907.953125 L 545.457031 908.257812 C 545.175781 908.464844 544.734375 908.792969 543.964844 909.335938 L 543.976562 909.324219 C 542.980469 910.023438 541.648438 911.449219 540.664062 913.226562 C 539.667969 915 539 917.09375 539.011719 919.230469 C 539.011719 920.859375 539.371094 922.535156 540.324219 924.289062 C 541.273438 926.03125 542.835938 927.882812 545.335938 929.71875 C 550.742188 933.628906 555.320312 934.523438 560.074219 934.726562 " fill-opacity="1" fill-rule="nonzero"/><path fill="#ffffff" d="M 559.824219 937.625 C 570.320312 937.625 578.816406 933.15625 578.816406 927.421875 L 578.90625 808.867188 C 578.90625 747.980469 607.578125 702.238281 664.125 672.90625 C 678.171875 665.65625 711.734375 656.8125 725.847656 665.941406 C 727.761719 667.160156 733.585938 670.960938 732.703125 687.542969 C 732.671875 687.917969 732.671875 688.335938 732.671875 688.699219 C 732.804688 716.648438 732.917969 744.5625 733.042969 772.503906 L 733.121094 785.589844 C 733.121094 789.480469 740.769531 793.574219 752.183594 793.574219 C 761.230469 793.574219 771.082031 786.722656 771.082031 785.851562 L 771.039062 772.320312 C 770.914062 744.5625 770.800781 716.816406 770.652344 689.070312 C 772.203125 657.523438 758.367188 641.769531 746.445312 634.03125 C 713.792969 612.945312 662.121094 631.125 646.636719 639.175781 C 577.480469 675.046875 540.921875 733.714844 540.921875 808.8125 L 540.855469 926.574219 C 540.855469 936.71875 559.824219 937.625 559.824219 937.625 " fill-opacity="1" fill-rule="nonzero"/><path fill="#0f22a0" d="M 559.824219 937.625 L 559.824219 940.519531 C 565.492188 940.507812 570.636719 939.34375 574.617188 937.226562 C 576.609375 936.164062 578.316406 934.851562 579.605469 933.222656 C 580.886719 931.605469 581.722656 929.59375 581.710938 927.421875 L 581.800781 808.867188 C 581.8125 778.871094 588.847656 752.808594 602.761719 730.59375 C 616.683594 708.378906 637.542969 689.964844 665.449219 675.476562 L 665.449219 675.488281 C 670.0625 673.101562 677.175781 670.417969 684.960938 668.382812 C 692.742188 666.347656 701.234375 664.933594 708.65625 664.945312 C 715.148438 664.921875 720.746094 666.054688 724.277344 668.371094 L 724.289062 668.382812 C 724.71875 668.644531 725.160156 668.9375 725.703125 669.445312 C 726.492188 670.203125 727.488281 671.425781 728.347656 673.710938 C 729.207031 675.996094 729.898438 679.355469 729.898438 684.273438 C 729.898438 685.25 729.863281 686.289062 729.808594 687.410156 L 732.703125 687.542969 L 729.820312 687.261719 C 729.773438 687.839844 729.773438 688.324219 729.773438 688.699219 L 729.773438 688.710938 C 729.910156 716.660156 730.023438 744.574219 730.148438 772.523438 L 730.226562 785.601562 L 730.226562 785.589844 C 730.238281 787.546875 731.175781 789.210938 732.410156 790.488281 C 734.277344 792.410156 736.945312 793.800781 740.28125 794.84375 C 743.621094 795.859375 747.632812 796.472656 752.183594 796.472656 C 757.441406 796.449219 762.476562 794.558594 766.332031 792.613281 C 768.265625 791.640625 769.882812 790.632812 771.09375 789.773438 C 771.703125 789.332031 772.203125 788.9375 772.632812 788.53125 C 772.847656 788.328125 773.050781 788.125 773.277344 787.828125 C 773.390625 787.671875 773.515625 787.5 773.652344 787.21875 C 773.785156 786.945312 773.96875 786.5625 773.976562 785.851562 L 773.976562 785.839844 L 773.933594 772.308594 C 773.796875 744.550781 773.683594 716.804688 773.546875 689.058594 L 770.652344 689.070312 L 773.546875 689.21875 C 773.628906 687.53125 773.660156 685.894531 773.660156 684.285156 C 773.671875 669.660156 770.292969 658.382812 765.347656 649.820312 C 760.417969 641.257812 753.96875 635.46875 748.019531 631.597656 L 748.007812 631.597656 C 736.210938 623.988281 722.242188 621.304688 708.464844 621.304688 C 695.207031 621.304688 682.0625 623.78125 670.921875 626.917969 C 659.757812 630.0625 650.628906 633.839844 645.300781 636.609375 C 610.339844 654.742188 583.476562 678.722656 565.390625 707.757812 C 547.289062 736.769531 538.015625 770.792969 538.027344 808.8125 L 537.960938 926.574219 C 537.949219 928.292969 538.367188 929.910156 539.089844 931.300781 C 540.378906 933.730469 542.449219 935.40625 544.621094 936.628906 C 547.914062 938.449219 551.601562 939.355469 554.53125 939.886719 C 557.449219 940.40625 559.597656 940.507812 559.6875 940.507812 L 559.824219 940.519531 L 559.824219 937.625 L 559.960938 934.726562 L 559.800781 934.714844 C 558.90625 934.671875 554.382812 934.273438 550.402344 932.871094 C 548.421875 932.183594 546.601562 931.234375 545.445312 930.15625 C 544.871094 929.625 544.453125 929.070312 544.167969 928.507812 C 543.898438 927.929688 543.75 927.332031 543.738281 926.574219 L 543.816406 808.8125 C 543.816406 771.722656 552.820312 738.863281 570.296875 710.8125 C 587.785156 682.769531 613.777344 659.492188 647.972656 641.757812 C 652.835938 639.222656 661.726562 635.511719 672.484375 632.492188 C 683.25 629.460938 695.929688 627.085938 708.464844 627.097656 C 721.515625 627.085938 734.34375 629.652344 744.875 636.464844 L 744.863281 636.453125 C 750.214844 639.925781 755.925781 645.070312 760.335938 652.71875 C 764.738281 660.363281 767.871094 670.542969 767.871094 684.285156 C 767.871094 685.792969 767.835938 687.339844 767.757812 688.933594 L 767.757812 689.082031 C 767.90625 716.828125 768.015625 744.574219 768.140625 772.332031 L 768.1875 785.859375 L 768.1875 785.851562 L 770.855469 785.851562 L 768.457031 784.664062 C 768.367188 784.878906 768.199219 785.195312 768.1875 785.851562 L 770.855469 785.851562 L 768.457031 784.664062 L 769.953125 785.410156 L 768.71875 784.265625 C 768.71875 784.277344 768.652344 784.300781 768.457031 784.664062 L 769.953125 785.410156 L 768.71875 784.265625 C 768.707031 784.277344 768.480469 784.492188 768.152344 784.742188 C 766.988281 785.65625 764.476562 787.21875 761.546875 788.472656 C 758.605469 789.730469 755.191406 790.679688 752.183594 790.679688 C 746.820312 790.679688 742.410156 789.695312 739.558594 788.394531 C 738.144531 787.761719 737.125 787.039062 736.582031 786.472656 C 736.3125 786.1875 736.152344 785.953125 736.085938 785.804688 L 736.019531 785.589844 L 736.019531 785.566406 L 735.9375 772.492188 C 735.804688 744.550781 735.691406 716.636719 735.566406 688.6875 L 735.566406 688.699219 C 735.566406 688.335938 735.566406 687.996094 735.589844 687.828125 L 735.597656 687.691406 C 735.65625 686.503906 735.691406 685.359375 735.691406 684.273438 C 735.691406 677.011719 734.332031 672.183594 732.523438 668.9375 C 731.617188 667.320312 730.601562 666.109375 729.671875 665.226562 C 728.746094 664.355469 727.875 663.789062 727.398438 663.496094 L 727.421875 663.507812 C 722.34375 660.25 715.761719 659.164062 708.65625 659.152344 C 700.523438 659.152344 691.644531 660.65625 683.488281 662.785156 C 675.332031 664.921875 667.949219 667.683594 662.789062 670.339844 L 662.777344 670.339844 C 634.148438 685.191406 612.410156 704.308594 597.863281 727.519531 C 583.304688 750.730469 576.011719 777.976562 576.011719 808.867188 L 575.917969 927.421875 C 575.917969 928.121094 575.691406 928.824219 575.046875 929.648438 C 574.097656 930.882812 572.140625 932.226562 569.472656 933.179688 C 566.800781 934.140625 563.453125 934.726562 559.824219 934.726562 L 559.824219 937.625 L 559.960938 934.726562 L 559.824219 937.625 " fill-opacity="1" fill-rule="nonzero"/></svg>