<svg xmlns="http://www.w3.org/2000/svg" xmlns:xlink="http://www.w3.org/1999/xlink" width="2000" zoomAndPan="magnify" viewBox="0 0 1500 1499.999933" height="2000" preserveAspectRatio="xMidYMid meet" version="1.0"><defs><clipPath id="fed8b6228c"><path d="M 713.878906 231.378906 L 781.910156 231.378906 L 781.910156 299.414062 L 713.878906 299.414062 Z M 713.878906 231.378906 " clip-rule="nonzero"/></clipPath><clipPath id="0e9649585f"><path d="M 731.183594 231.378906 C 721.820312 240.746094 721.632812 255.789062 730.597656 265.386719 L 713.878906 282.105469 C 723.242188 291.472656 738.285156 291.65625 747.886719 282.695312 L 764.605469 299.414062 C 773.972656 290.046875 774.15625 275.003906 765.191406 265.40625 L 781.910156 248.683594 C 772.546875 239.320312 757.503906 239.136719 747.902344 248.097656 Z M 731.183594 231.378906 " clip-rule="nonzero"/></clipPath><clipPath id="98da4c4a59"><path d="M 0.878906 0.378906 L 68.910156 0.378906 L 68.910156 68.414062 L 0.878906 68.414062 Z M 0.878906 0.378906 " clip-rule="nonzero"/></clipPath><clipPath id="65aa9ccdbb"><path d="M 18.183594 0.378906 C 8.820312 9.746094 8.632812 24.789062 17.597656 34.386719 L 0.878906 51.105469 C 10.242188 60.472656 25.285156 60.65625 34.886719 51.695312 L 51.605469 68.414062 C 60.972656 59.046875 61.15625 44.003906 52.191406 34.40625 L 68.910156 17.683594 C 59.546875 8.320312 44.503906 8.136719 34.902344 17.097656 Z M 18.183594 0.378906 " clip-rule="nonzero"/></clipPath><clipPath id="0c97ccc16b"><rect x="0" width="69" y="0" height="69"/></clipPath><clipPath id="8578f05da6"><path d="M 234.191406 721.238281 L 302.222656 721.238281 L 302.222656 789.269531 L 234.191406 789.269531 Z M 234.191406 721.238281 " clip-rule="nonzero"/></clipPath><clipPath id="a14afb5f70"><path d="M 251.496094 721.238281 C 242.128906 730.601562 241.945312 745.644531 250.910156 755.246094 L 234.191406 771.964844 C 243.554688 781.328125 258.597656 781.515625 268.199219 772.550781 L 284.917969 789.269531 C 294.28125 779.90625 294.46875 764.863281 285.503906 755.261719 L 302.222656 738.542969 C 292.859375 729.175781 277.816406 728.992188 268.214844 737.957031 Z M 251.496094 721.238281 " clip-rule="nonzero"/></clipPath><clipPath id="b3ed896b71"><path d="M 0.191406 0.238281 L 68.222656 0.238281 L 68.222656 68.269531 L 0.191406 68.269531 Z M 0.191406 0.238281 " clip-rule="nonzero"/></clipPath><clipPath id="c49db130e9"><path d="M 17.496094 0.238281 C 8.128906 9.601562 7.945312 24.644531 16.910156 34.246094 L 0.191406 50.964844 C 9.554688 60.328125 24.597656 60.515625 34.199219 51.550781 L 50.917969 68.269531 C 60.28125 58.90625 60.46875 43.863281 51.503906 34.261719 L 68.222656 17.542969 C 58.859375 8.175781 43.816406 7.992188 34.214844 16.957031 Z M 17.496094 0.238281 " clip-rule="nonzero"/></clipPath><clipPath id="f685c72c05"><rect x="0" width="69" y="0" height="69"/></clipPath><clipPath id="8c4642a9e5"><path d="M 729 150 L 771 150 L 771 217 L 729 217 Z M 729 150 " clip-rule="nonzero"/></clipPath><clipPath id="d3a22ee820"><path d="M 713.742188 184.734375 L 751.488281 146.984375 L 786.894531 182.390625 L 749.144531 220.140625 Z M 713.742188 184.734375 " clip-rule="nonzero"/></clipPath><clipPath id="88319bb223"><path d="M 757.914062 153.5625 L 764.425781 160.070312 C 768.488281 164.136719 770.707031 169.6875 770.570312 175.433594 L 770.207031 190.300781 C 770.066406 196.078125 767.707031 201.578125 763.621094 205.664062 L 755.511719 213.773438 C 751.996094 217.289062 746.296875 217.289062 742.78125 213.773438 L 735.953125 206.945312 C 731.890625 202.882812 729.675781 197.328125 729.835938 191.585938 L 730.226562 177.277344 C 730.382812 171.5 732.746094 166.003906 736.835938 161.914062 L 745.1875 153.5625 C 748.703125 150.046875 754.398438 150.046875 757.914062 153.5625 Z M 757.914062 153.5625 " clip-rule="nonzero"/></clipPath><clipPath id="b8cd03c5f1"><path d="M 0.601562 0 L 41.878906 0 L 41.878906 67 L 0.601562 67 Z M 0.601562 0 " clip-rule="nonzero"/></clipPath><clipPath id="eb94864aec"><path d="M -15.257812 34.734375 L 22.488281 -3.015625 L 57.894531 32.390625 L 20.144531 70.140625 Z M -15.257812 34.734375 " clip-rule="nonzero"/></clipPath><clipPath id="80d18c035a"><path d="M 28.914062 3.5625 L 35.425781 10.070312 C 39.488281 14.136719 41.707031 19.6875 41.570312 25.433594 L 41.207031 40.300781 C 41.066406 46.078125 38.707031 51.578125 34.621094 55.664062 L 26.511719 63.773438 C 22.996094 67.289062 17.296875 67.289062 13.78125 63.773438 L 6.953125 56.945312 C 2.890625 52.882812 0.675781 47.328125 0.835938 41.585938 L 1.226562 27.277344 C 1.382812 21.5 3.746094 16.003906 7.835938 11.914062 L 16.1875 3.5625 C 19.703125 0.046875 25.398438 0.046875 28.914062 3.5625 Z M 28.914062 3.5625 " clip-rule="nonzero"/></clipPath><clipPath id="74a49b8e96"><rect x="0" width="42" y="0" height="67"/></clipPath><clipPath id="a7d2e39ce3"><path d="M 155 734 L 224 734 L 224 776 L 155 776 Z M 155 734 " clip-rule="nonzero"/></clipPath><clipPath id="a3529fe878"><path d="M 190.335938 791.863281 L 152.585938 754.113281 L 187.992188 718.707031 L 225.738281 756.457031 Z M 190.335938 791.863281 " clip-rule="nonzero"/></clipPath><clipPath id="c9ee94e234"><path d="M 157.042969 749.808594 L 167.792969 739.058594 C 170.503906 736.347656 174.203125 734.867188 178.035156 734.960938 L 198.902344 735.46875 C 202.75 735.5625 206.417969 737.136719 209.140625 739.859375 L 221.496094 752.214844 C 222.621094 753.339844 223.253906 754.863281 223.253906 756.457031 C 223.253906 758.046875 222.621094 759.574219 221.496094 760.699219 L 210.425781 771.769531 C 207.714844 774.480469 204.011719 775.953125 200.183594 775.851562 L 179.878906 775.296875 C 176.027344 775.191406 172.363281 773.613281 169.636719 770.890625 L 157.042969 758.292969 C 155.917969 757.167969 155.285156 755.644531 155.285156 754.050781 C 155.285156 752.460938 155.917969 750.933594 157.042969 749.808594 Z M 157.042969 749.808594 " clip-rule="nonzero"/></clipPath><clipPath id="82c13454b6"><path d="M 0.28125 0.640625 L 68.441406 0.640625 L 68.441406 42 L 0.28125 42 Z M 0.28125 0.640625 " clip-rule="nonzero"/></clipPath><clipPath id="1f5e6dbea5"><path d="M 35.335938 57.863281 L -2.414062 20.113281 L 32.992188 -15.292969 L 70.738281 22.457031 Z M 35.335938 57.863281 " clip-rule="nonzero"/></clipPath><clipPath id="be2200534a"><path d="M 2.042969 15.808594 L 12.792969 5.058594 C 15.503906 2.347656 19.203125 0.867188 23.035156 0.960938 L 43.902344 1.46875 C 47.75 1.5625 51.417969 3.136719 54.140625 5.859375 L 66.496094 18.214844 C 67.621094 19.339844 68.253906 20.863281 68.253906 22.457031 C 68.253906 24.046875 67.621094 25.574219 66.496094 26.699219 L 55.425781 37.769531 C 52.714844 40.480469 49.011719 41.953125 45.183594 41.851562 L 24.878906 41.296875 C 21.027344 41.191406 17.363281 39.613281 14.636719 36.890625 L 2.042969 24.292969 C 0.917969 23.167969 0.285156 21.644531 0.285156 20.050781 C 0.285156 18.460938 0.917969 16.933594 2.042969 15.808594 Z M 2.042969 15.808594 " clip-rule="nonzero"/></clipPath><clipPath id="508054291f"><rect x="0" width="69" y="0" height="42"/></clipPath></defs><path stroke-linecap="round" transform="matrix(0, -0.75, 0.75, 0, 739.675746, 1352.800639)" fill="none" stroke-linejoin="miter" d="M 17.499812 17.500049 L 1132.697825 17.500049 " stroke="#000000" stroke-width="35" stroke-opacity="1" stroke-miterlimit="4"/><path stroke-linecap="round" transform="matrix(-0.75, 0, 0, -0.75, 1352.798365, 765.92797)" fill="none" stroke-linejoin="miter" d="M 17.501988 17.497712 L 1132.710417 17.497712 " stroke="#000000" stroke-width="35" stroke-opacity="1" stroke-miterlimit="4"/><g clip-path="url(#fed8b6228c)"><g clip-path="url(#0e9649585f)"><g transform="matrix(1, 0, 0, 1, 713, 231)"><g clip-path="url(#0c97ccc16b)"><g clip-path="url(#98da4c4a59)"><g clip-path="url(#65aa9ccdbb)"><path fill="#072146" d="M 0.878906 68.414062 L 0.878906 0.378906 L 68.910156 0.378906 L 68.910156 68.414062 Z M 0.878906 68.414062 " fill-opacity="1" fill-rule="nonzero"/></g></g></g></g></g></g><g clip-path="url(#8578f05da6)"><g clip-path="url(#a14afb5f70)"><g transform="matrix(1, 0, 0, 1, 234, 721)"><g clip-path="url(#f685c72c05)"><g clip-path="url(#b3ed896b71)"><g clip-path="url(#c49db130e9)"><path fill="#072146" d="M 0.191406 68.269531 L 0.191406 0.238281 L 68.222656 0.238281 L 68.222656 68.269531 Z M 0.191406 68.269531 " fill-opacity="1" fill-rule="nonzero"/></g></g></g></g></g></g><g clip-path="url(#8c4642a9e5)"><g clip-path="url(#d3a22ee820)"><g clip-path="url(#88319bb223)"><g transform="matrix(1, 0, 0, 1, 729, 150)"><g clip-path="url(#74a49b8e96)"><g clip-path="url(#b8cd03c5f1)"><g clip-path="url(#eb94864aec)"><g clip-path="url(#80d18c035a)"><path fill="#072146" d="M -15.121094 34.871094 L 22.488281 -2.738281 L 57.757812 32.53125 L 20.144531 70.140625 Z M -15.121094 34.871094 " fill-opacity="1" fill-rule="nonzero"/></g></g></g></g></g></g></g></g><g clip-path="url(#a7d2e39ce3)"><g clip-path="url(#a3529fe878)"><g clip-path="url(#c9ee94e234)"><g transform="matrix(1, 0, 0, 1, 155, 734)"><g clip-path="url(#508054291f)"><g clip-path="url(#82c13454b6)"><g clip-path="url(#1f5e6dbea5)"><g clip-path="url(#be2200534a)"><path fill="#072146" d="M 35.472656 57.722656 L -2.136719 20.113281 L 33.128906 -15.152344 L 70.738281 22.457031 Z M 35.472656 57.722656 " fill-opacity="1" fill-rule="nonzero"/></g></g></g></g></g></g></g></g><path fill="#000000" d="M 739.675781 448.339844 L 739.675781 448.335938 C 739.675781 447.476562 739.761719 446.621094 739.929688 445.777344 C 740.097656 444.933594 740.34375 444.109375 740.675781 443.316406 C 741.003906 442.519531 741.410156 441.761719 741.886719 441.046875 C 742.367188 440.328125 742.910156 439.667969 743.519531 439.058594 C 744.128906 438.449219 744.792969 437.902344 745.507812 437.425781 C 746.226562 436.945312 746.980469 436.542969 747.777344 436.210938 C 748.574219 435.882812 749.394531 435.632812 750.238281 435.464844 C 751.085938 435.296875 751.9375 435.210938 752.800781 435.210938 C 753.664062 435.210938 754.515625 435.296875 755.359375 435.464844 C 756.207031 435.632812 757.027344 435.882812 757.824219 436.210938 C 758.621094 436.542969 759.375 436.945312 760.09375 437.425781 C 760.808594 437.902344 761.472656 438.449219 762.082031 439.058594 C 762.691406 439.667969 763.234375 440.328125 763.714844 441.046875 C 764.191406 441.761719 764.597656 442.519531 764.925781 443.316406 C 765.257812 444.109375 765.503906 444.933594 765.671875 445.777344 C 765.839844 446.621094 765.925781 447.476562 765.925781 448.335938 L 765.925781 448.339844 C 765.925781 449.203125 765.839844 450.054688 765.671875 450.902344 C 765.503906 451.746094 765.257812 452.566406 764.925781 453.363281 C 764.597656 454.160156 764.191406 454.914062 763.714844 455.632812 C 763.234375 456.347656 762.691406 457.011719 762.082031 457.621094 C 761.472656 458.230469 760.808594 458.773438 760.09375 459.253906 C 759.375 459.730469 758.621094 460.136719 757.824219 460.464844 C 757.027344 460.796875 756.207031 461.046875 755.359375 461.214844 C 754.515625 461.382812 753.664062 461.464844 752.800781 461.464844 C 751.9375 461.464844 751.085938 461.382812 750.238281 461.214844 C 749.394531 461.046875 748.574219 460.796875 747.777344 460.464844 C 746.980469 460.136719 746.226562 459.730469 745.507812 459.253906 C 744.792969 458.773438 744.128906 458.230469 743.519531 457.621094 C 742.910156 457.011719 742.367188 456.347656 741.886719 455.632812 C 741.410156 454.914062 741.003906 454.160156 740.675781 453.363281 C 740.34375 452.566406 740.097656 451.746094 739.929688 450.902344 C 739.761719 450.054688 739.675781 449.203125 739.675781 448.339844 Z M 739.675781 395.835938 C 739.675781 394.972656 739.761719 394.121094 739.929688 393.273438 C 740.097656 392.429688 740.34375 391.609375 740.675781 390.8125 C 741.003906 390.015625 741.410156 389.261719 741.886719 388.542969 C 742.367188 387.828125 742.910156 387.164062 743.519531 386.554688 C 744.128906 385.945312 744.792969 385.402344 745.507812 384.921875 C 746.226562 384.445312 746.980469 384.039062 747.777344 383.710938 C 748.574219 383.378906 749.394531 383.128906 750.238281 382.960938 C 751.085938 382.792969 751.9375 382.710938 752.800781 382.710938 C 753.664062 382.710938 754.515625 382.792969 755.359375 382.960938 C 756.207031 383.128906 757.027344 383.378906 757.824219 383.710938 C 758.621094 384.039062 759.375 384.445312 760.09375 384.921875 C 760.808594 385.402344 761.472656 385.945312 762.082031 386.554688 C 762.691406 387.164062 763.234375 387.828125 763.714844 388.542969 C 764.191406 389.261719 764.597656 390.015625 764.925781 390.8125 C 765.257812 391.609375 765.503906 392.429688 765.671875 393.273438 C 765.839844 394.121094 765.925781 394.972656 765.925781 395.835938 C 765.925781 396.699219 765.839844 397.554688 765.671875 398.398438 C 765.503906 399.242188 765.257812 400.0625 764.925781 400.859375 C 764.597656 401.65625 764.191406 402.414062 763.714844 403.128906 C 763.234375 403.847656 762.691406 404.507812 762.082031 405.117188 C 761.472656 405.726562 760.808594 406.273438 760.09375 406.75 C 759.375 407.230469 758.621094 407.632812 757.824219 407.964844 C 757.027344 408.292969 756.207031 408.542969 755.359375 408.710938 C 754.515625 408.878906 753.664062 408.960938 752.800781 408.960938 C 751.9375 408.960938 751.085938 408.878906 750.238281 408.710938 C 749.394531 408.542969 748.574219 408.292969 747.777344 407.964844 C 746.980469 407.632812 746.226562 407.230469 745.507812 406.75 C 744.792969 406.273438 744.128906 405.726562 743.519531 405.117188 C 742.910156 404.507812 742.367188 403.847656 741.886719 403.128906 C 741.410156 402.414062 741.003906 401.65625 740.675781 400.859375 C 740.34375 400.0625 740.097656 399.242188 739.929688 398.398438 C 739.761719 397.554688 739.675781 396.699219 739.675781 395.835938 Z M 739.675781 343.335938 L 739.675781 343.332031 C 739.675781 342.472656 739.761719 341.617188 739.929688 340.773438 C 740.097656 339.925781 740.34375 339.105469 740.675781 338.308594 C 741.003906 337.515625 741.410156 336.757812 741.886719 336.039062 C 742.367188 335.324219 742.910156 334.660156 743.519531 334.050781 C 744.128906 333.441406 744.792969 332.898438 745.507812 332.417969 C 746.226562 331.941406 746.980469 331.535156 747.777344 331.207031 C 748.574219 330.875 749.394531 330.628906 750.238281 330.460938 C 751.085938 330.292969 751.9375 330.207031 752.800781 330.207031 C 753.664062 330.207031 754.515625 330.292969 755.359375 330.460938 C 756.207031 330.628906 757.027344 330.875 757.824219 331.207031 C 758.621094 331.535156 759.375 331.941406 760.09375 332.417969 C 760.808594 332.898438 761.472656 333.441406 762.082031 334.050781 C 762.691406 334.660156 763.234375 335.324219 763.714844 336.039062 C 764.191406 336.757812 764.597656 337.515625 764.925781 338.308594 C 765.257812 339.105469 765.503906 339.925781 765.671875 340.773438 C 765.839844 341.617188 765.925781 342.472656 765.925781 343.332031 L 765.925781 343.335938 C 765.925781 344.195312 765.839844 345.050781 765.671875 345.894531 C 765.503906 346.742188 765.257812 347.5625 764.925781 348.359375 C 764.597656 349.152344 764.191406 349.910156 763.714844 350.628906 C 763.234375 351.34375 762.691406 352.007812 762.082031 352.617188 C 761.472656 353.226562 760.808594 353.769531 760.09375 354.25 C 759.375 354.726562 758.621094 355.132812 757.824219 355.460938 C 757.027344 355.789062 756.207031 356.039062 755.359375 356.207031 C 754.515625 356.375 753.664062 356.460938 752.800781 356.460938 C 751.9375 356.460938 751.085938 356.375 750.238281 356.207031 C 749.394531 356.039062 748.574219 355.789062 747.777344 355.460938 C 746.980469 355.132812 746.226562 354.726562 745.507812 354.25 C 744.792969 353.769531 744.128906 353.226562 743.519531 352.617188 C 742.910156 352.007812 742.367188 351.34375 741.886719 350.628906 C 741.410156 349.910156 741.003906 349.152344 740.675781 348.359375 C 740.34375 347.5625 740.097656 346.742188 739.929688 345.894531 C 739.761719 345.050781 739.675781 344.195312 739.675781 343.335938 Z M 739.675781 343.335938 " fill-opacity="1" fill-rule="nonzero"/><path fill="#000000" d="M 451.148438 768.382812 L 451.144531 768.382812 C 450.285156 768.382812 449.429688 768.296875 448.585938 768.128906 C 447.738281 767.960938 446.917969 767.710938 446.121094 767.382812 C 445.328125 767.050781 444.570312 766.648438 443.855469 766.167969 C 443.136719 765.691406 442.472656 765.148438 441.863281 764.539062 C 441.253906 763.929688 440.710938 763.265625 440.234375 762.546875 C 439.753906 761.832031 439.347656 761.074219 439.019531 760.277344 C 438.691406 759.484375 438.441406 758.664062 438.273438 757.816406 C 438.105469 756.972656 438.019531 756.117188 438.019531 755.257812 C 438.019531 754.394531 438.105469 753.542969 438.273438 752.695312 C 438.441406 751.851562 438.691406 751.03125 439.019531 750.234375 C 439.347656 749.4375 439.753906 748.679688 440.234375 747.964844 C 440.710938 747.246094 441.253906 746.585938 441.863281 745.976562 C 442.472656 745.367188 443.136719 744.820312 443.855469 744.34375 C 444.570312 743.863281 445.328125 743.460938 446.121094 743.128906 C 446.917969 742.800781 447.738281 742.550781 448.585938 742.382812 C 449.429688 742.214844 450.285156 742.132812 451.144531 742.132812 L 451.148438 742.132812 C 452.011719 742.132812 452.863281 742.214844 453.707031 742.382812 C 454.554688 742.550781 455.375 742.800781 456.171875 743.128906 C 456.96875 743.460938 457.722656 743.863281 458.441406 744.34375 C 459.15625 744.820312 459.820312 745.367188 460.429688 745.976562 C 461.039062 746.585938 461.582031 747.246094 462.0625 747.964844 C 462.539062 748.679688 462.945312 749.4375 463.273438 750.234375 C 463.605469 751.03125 463.851562 751.851562 464.019531 752.695312 C 464.1875 753.542969 464.273438 754.394531 464.273438 755.257812 C 464.273438 756.117188 464.1875 756.972656 464.019531 757.816406 C 463.851562 758.664062 463.605469 759.484375 463.273438 760.277344 C 462.945312 761.074219 462.539062 761.832031 462.0625 762.546875 C 461.582031 763.265625 461.039062 763.929688 460.429688 764.539062 C 459.820312 765.148438 459.15625 765.691406 458.441406 766.167969 C 457.722656 766.648438 456.96875 767.050781 456.171875 767.382812 C 455.375 767.710938 454.554688 767.960938 453.707031 768.128906 C 452.863281 768.296875 452.011719 768.382812 451.148438 768.382812 Z M 398.644531 768.382812 C 397.78125 768.382812 396.925781 768.296875 396.082031 768.128906 C 395.238281 767.960938 394.417969 767.710938 393.621094 767.382812 C 392.824219 767.050781 392.066406 766.648438 391.351562 766.167969 C 390.632812 765.691406 389.972656 765.148438 389.363281 764.539062 C 388.753906 763.929688 388.207031 763.265625 387.730469 762.546875 C 387.25 761.832031 386.847656 761.074219 386.515625 760.277344 C 386.1875 759.484375 385.9375 758.664062 385.769531 757.816406 C 385.601562 756.972656 385.519531 756.117188 385.519531 755.257812 C 385.519531 754.394531 385.601562 753.542969 385.769531 752.695312 C 385.9375 751.851562 386.1875 751.03125 386.515625 750.234375 C 386.847656 749.4375 387.25 748.679688 387.730469 747.964844 C 388.207031 747.246094 388.753906 746.585938 389.363281 745.976562 C 389.972656 745.367188 390.632812 744.820312 391.351562 744.34375 C 392.066406 743.863281 392.824219 743.460938 393.621094 743.128906 C 394.417969 742.800781 395.238281 742.550781 396.082031 742.382812 C 396.925781 742.214844 397.78125 742.132812 398.644531 742.132812 C 399.507812 742.132812 400.359375 742.214844 401.207031 742.382812 C 402.050781 742.550781 402.871094 742.800781 403.667969 743.128906 C 404.464844 743.460938 405.222656 743.863281 405.9375 744.34375 C 406.652344 744.820312 407.316406 745.367188 407.925781 745.976562 C 408.535156 746.585938 409.078125 747.246094 409.558594 747.964844 C 410.039062 748.679688 410.441406 749.4375 410.769531 750.234375 C 411.101562 751.03125 411.351562 751.851562 411.519531 752.695312 C 411.6875 753.542969 411.769531 754.394531 411.769531 755.257812 C 411.769531 756.117188 411.6875 756.972656 411.519531 757.816406 C 411.351562 758.664062 411.101562 759.484375 410.773438 760.277344 C 410.441406 761.074219 410.039062 761.832031 409.558594 762.546875 C 409.078125 763.265625 408.535156 763.929688 407.925781 764.539062 C 407.316406 765.148438 406.652344 765.691406 405.9375 766.167969 C 405.222656 766.648438 404.464844 767.050781 403.667969 767.382812 C 402.871094 767.710938 402.050781 767.960938 401.207031 768.128906 C 400.359375 768.296875 399.507812 768.382812 398.644531 768.382812 Z M 346.144531 768.382812 L 346.140625 768.382812 C 345.277344 768.382812 344.425781 768.296875 343.578125 768.128906 C 342.734375 767.960938 341.914062 767.710938 341.117188 767.382812 C 340.320312 767.050781 339.566406 766.648438 338.847656 766.167969 C 338.132812 765.691406 337.46875 765.148438 336.859375 764.539062 C 336.25 763.929688 335.707031 763.265625 335.226562 762.546875 C 334.75 761.832031 334.34375 761.074219 334.015625 760.277344 C 333.683594 759.484375 333.4375 758.664062 333.265625 757.816406 C 333.097656 756.972656 333.015625 756.117188 333.015625 755.257812 C 333.015625 754.394531 333.097656 753.542969 333.265625 752.695312 C 333.4375 751.851562 333.683594 751.03125 334.015625 750.234375 C 334.34375 749.4375 334.75 748.679688 335.226562 747.964844 C 335.707031 747.246094 336.25 746.585938 336.859375 745.976562 C 337.46875 745.367188 338.132812 744.820312 338.847656 744.34375 C 339.566406 743.863281 340.320312 743.460938 341.117188 743.128906 C 341.914062 742.800781 342.734375 742.550781 343.578125 742.382812 C 344.425781 742.214844 345.277344 742.132812 346.140625 742.132812 L 346.144531 742.132812 C 347.003906 742.132812 347.859375 742.214844 348.703125 742.382812 C 349.546875 742.550781 350.371094 742.800781 351.164062 743.128906 C 351.960938 743.460938 352.71875 743.863281 353.433594 744.34375 C 354.152344 744.820312 354.8125 745.367188 355.421875 745.976562 C 356.03125 746.585938 356.578125 747.246094 357.054688 747.964844 C 357.535156 748.679688 357.9375 749.4375 358.269531 750.234375 C 358.597656 751.03125 358.847656 751.851562 359.015625 752.695312 C 359.183594 753.542969 359.269531 754.394531 359.269531 755.257812 C 359.269531 756.117188 359.183594 756.972656 359.015625 757.816406 C 358.847656 758.664062 358.597656 759.484375 358.269531 760.277344 C 357.9375 761.074219 357.535156 761.832031 357.054688 762.546875 C 356.578125 763.265625 356.03125 763.929688 355.421875 764.539062 C 354.8125 765.148438 354.152344 765.691406 353.433594 766.167969 C 352.71875 766.648438 351.960938 767.050781 351.164062 767.382812 C 350.371094 767.710938 349.546875 767.960938 348.703125 768.128906 C 347.859375 768.296875 347.003906 768.382812 346.144531 768.382812 Z M 346.144531 768.382812 " fill-opacity="1" fill-rule="nonzero"/></svg>