<svg xmlns="http://www.w3.org/2000/svg"  viewBox="0 0 24 24" width="24px" height="24px"><path d="M8,7c0-2.209,1.791-4,4-4s4,1.791,4,4h2c0-3.314-2.686-6-6-6S6,3.686,6,7H8z"/><path d="M12,12c-1.105,0-2,0.895-2,2s0.895,2,2,2s2-0.895,2-2S13.105,12,12,12z"/><path d="M21,15.555V10c0-1.657-1.343-3-3-3H6c-1.657,0-3,1.343-3,3v8	c0,1.657,1.343,3,3,3h9.35c0.563,1.179,1.756,2,3.15,2c0.086,0,0.166-0.019,0.25-0.025C18.834,22.98,18.914,23,19,23	c2.209,0,4-1.791,4-4C23,17.523,22.191,16.248,21,15.555z" opacity=".35"/><path d="M19,14c-2.76,0-5,2.24-5,5s2.24,5,5,5s5-2.24,5-5S21.76,14,19,14z M21.62,18.62l-2.5,2.5c-0.17,0.16-0.39,0.26-0.62,0.26	s-0.45-0.1-0.62-0.26l-1.5-1.5c-0.34-0.34-0.34-0.9,0-1.24s0.9-0.34,1.24,0l0.88,0.88l1.88-1.88c0.34-0.34,0.9-0.34,1.24,0	C21.96,17.72,21.96,18.28,21.62,18.62z"/></svg>