<svg xmlns="http://www.w3.org/2000/svg"  viewBox="0 0 24 24" width="24px" height="24px"><path d="M20,6v10.35l-1.15-1.87c-0.39-0.63-1.31-0.63-1.7,0L13.76,20H11V4h7C19.1,4,20,4.9,20,6z"/><path d="M11,4.056v15.883c0,1.292-1.206,2.245-2.463,1.946l-5.769-1.372C2.318,20.406,2,20.003,2,19.54 V4.442c0-0.464,0.319-0.867,0.771-0.973l5.771-1.359C9.797,1.813,11,2.766,11,4.056z" opacity=".35"/><path d="M17.148,14.481l-4.912,7.99c-0.41,0.666,0.07,1.524,0.852,1.524h9.823 c0.782,0,1.261-0.857,0.852-1.524l-4.912-7.99C18.462,13.846,17.538,13.846,17.148,14.481z" opacity=".35"/><path d="M18.917,22.02c0,0.274-0.159,0.975-0.921,0.975c-0.762,0-0.912-0.701-0.912-0.975c0-0.268,0.17-0.987,0.912-0.987 C18.737,21.033,18.917,21.752,18.917,22.02z M17.16,19.443V17.06c0-0.464,0.376-0.84,0.84-0.84l0,0c0.464,0,0.84,0.376,0.84,0.84 v2.384c0,0.464-0.376,0.84-0.84,0.84l0,0C17.536,20.284,17.16,19.908,17.16,19.443z"/><circle cx="8" cy="12" r="1"/></svg>