<svg xmlns="http://www.w3.org/2000/svg" xmlns:xlink="http://www.w3.org/1999/xlink" viewBox="0 0 100 100" width="100" height="100" preserveAspectRatio="xMidYMid meet" style="width: 100%; height: 100%; transform: translate3d(0px, 0px, 0px); content-visibility: visible;"><defs><clipPath id="__lottie_element_2934"><rect width="100" height="100" x="0" y="0"/></clipPath><g id="__lottie_element_2943"><g transform="matrix(1,0,0,1,13,17)" opacity="1" style="display: block;"><path fill="rgb(0,0,0)" fill-opacity="1" d=" M14,0 C14,0 0,0 0,0 C0,0 0,18 0,18 C0,18 14,18 14,18 C14,18 14,0 14,0z"/></g></g><g id="__lottie_element_2950"><g transform="matrix(1,0,0,1,13,41)" opacity="1" style="display: block;"><path fill="rgb(0,0,0)" fill-opacity="1" d=" M14,0 C14,0 0,0 0,0 C0,0 0,18 0,18 C0,18 14,18 14,18 C14,18 14,0 14,0z"/></g></g><g id="__lottie_element_2957"><g transform="matrix(1,0,0,1,13,65)" opacity="1" style="display: block;"><path fill="rgb(0,0,0)" fill-opacity="1" d=" M14,0 C14,0 0,0 0,0 C0,0 0,18 0,18 C0,18 14,18 14,18 C14,18 14,0 14,0z"/></g></g><g id="__lottie_element_2964"><g transform="matrix(1,0,0,1,33,17)" opacity="1" style="display: block;"><path fill="rgb(0,0,0)" fill-opacity="1" d=" M14,0 C14,0 0,0 0,0 C0,0 0,18 0,18 C0,18 14,18 14,18 C14,18 14,0 14,0z"/></g></g><g id="__lottie_element_2971"><g transform="matrix(1,0,0,1,33,41)" opacity="1" style="display: block;"><path fill="rgb(0,0,0)" fill-opacity="1" d=" M14,0 C14,0 0,0 0,0 C0,0 0,18 0,18 C0,18 14,18 14,18 C14,18 14,0 14,0z"/></g></g><g id="__lottie_element_2978"><g transform="matrix(1,0,0,1,33,65)" opacity="1" style="display: block;"><path fill="rgb(0,0,0)" fill-opacity="1" d=" M14,0 C14,0 0,0 0,0 C0,0 0,18 0,18 C0,18 14,18 14,18 C14,18 14,0 14,0z"/></g></g><g id="__lottie_element_2985"><g transform="matrix(1,0,0,1,53,17)" opacity="1" style="display: block;"><path fill="rgb(0,0,0)" fill-opacity="1" d=" M14,0 C14,0 0,0 0,0 C0,0 0,18 0,18 C0,18 14,18 14,18 C14,18 14,0 14,0z"/></g></g><g id="__lottie_element_2992"><g transform="matrix(1,0,0,1,53,41)" opacity="1" style="display: block;"><path fill="rgb(0,0,0)" fill-opacity="1" d=" M14,0 C14,0 0,0 0,0 C0,0 0,18 0,18 C0,18 14,18 14,18 C14,18 14,0 14,0z"/></g></g><g id="__lottie_element_2999"><g transform="matrix(1,0,0,1,53,65)" opacity="1" style="display: block;"><path fill="rgb(0,0,0)" fill-opacity="1" d=" M14,0 C14,0 0,0 0,0 C0,0 0,18 0,18 C0,18 14,18 14,18 C14,18 14,0 14,0z"/></g></g><g id="__lottie_element_3006"><g transform="matrix(1,0,0,1,73,17)" opacity="1" style="display: block;"><path fill="rgb(0,0,0)" fill-opacity="1" d=" M14,0 C14,0 0,0 0,0 C0,0 0,18 0,18 C0,18 14,18 14,18 C14,18 14,0 14,0z"/></g></g><g id="__lottie_element_3013"><g transform="matrix(1,0,0,1,73,41)" opacity="1" style="display: block;"><path fill="rgb(0,0,0)" fill-opacity="1" d=" M14,0 C14,0 0,0 0,0 C0,0 0,18 0,18 C0,18 14,18 14,18 C14,18 14,0 14,0z"/></g></g><g id="__lottie_element_3020"><g transform="matrix(1,0,0,1,73,65)" opacity="1" style="display: block;"><path fill="rgb(0,0,0)" fill-opacity="1" d=" M14,0 C14,0 0,0 0,0 C0,0 0,18 0,18 C0,18 14,18 14,18 C14,18 14,0 14,0z"/></g></g><clipPath id="__lottie_element_3025"><path d="M0,0 L74,0 L74,66 L0,66z"/></clipPath><g id="__lottie_element_3035"><g transform="matrix(1,0,0,1,36,29)" opacity="1" style="display: block;"><path fill="rgb(0,0,0)" fill-opacity="1" d=" M25.799999237060547,0 C25.799999237060547,0 0,20.799999237060547 0,20.799999237060547 C0,20.799999237060547 9.600000381469727,26.5 9.600000381469727,26.5 C9.600000381469727,26.5 2.200000047683716,42 2.200000047683716,42 C2.200000047683716,42 28,21.200000762939453 28,21.200000762939453 C28,21.200000762939453 18.399999618530273,15.800000190734863 18.399999618530273,15.800000190734863 C18.399999618530273,15.800000190734863 25.799999237060547,0 25.799999237060547,0 C25.799999237060547,0 25.799999237060547,0 25.799999237060547,0z"/></g></g><mask id="__lottie_element_3035_1" mask-type="alpha"><use xmlns:ns1="http://www.w3.org/1999/xlink" ns1:href="#__lottie_element_3035"/></mask><mask id="__lottie_element_3020_1" mask-type="alpha"><use xmlns:ns2="http://www.w3.org/1999/xlink" ns2:href="#__lottie_element_3020"/></mask><mask id="__lottie_element_3013_1" mask-type="alpha"><use xmlns:ns3="http://www.w3.org/1999/xlink" ns3:href="#__lottie_element_3013"/></mask><mask id="__lottie_element_3006_1" mask-type="alpha"><use xmlns:ns4="http://www.w3.org/1999/xlink" ns4:href="#__lottie_element_3006"/></mask><mask id="__lottie_element_2999_1" mask-type="alpha"><use xmlns:ns5="http://www.w3.org/1999/xlink" ns5:href="#__lottie_element_2999"/></mask><mask id="__lottie_element_2992_1" mask-type="alpha"><use xmlns:ns6="http://www.w3.org/1999/xlink" ns6:href="#__lottie_element_2992"/></mask><mask id="__lottie_element_2985_1" mask-type="alpha"><use xmlns:ns7="http://www.w3.org/1999/xlink" ns7:href="#__lottie_element_2985"/></mask><mask id="__lottie_element_2978_1" mask-type="alpha"><use xmlns:ns8="http://www.w3.org/1999/xlink" ns8:href="#__lottie_element_2978"/></mask><mask id="__lottie_element_2971_1" mask-type="alpha"><use xmlns:ns9="http://www.w3.org/1999/xlink" ns9:href="#__lottie_element_2971"/></mask><mask id="__lottie_element_2964_1" mask-type="alpha"><use xmlns:ns10="http://www.w3.org/1999/xlink" ns10:href="#__lottie_element_2964"/></mask><mask id="__lottie_element_2957_1" mask-type="alpha"><use xmlns:ns11="http://www.w3.org/1999/xlink" ns11:href="#__lottie_element_2957"/></mask><mask id="__lottie_element_2950_1" mask-type="alpha"><use xmlns:ns12="http://www.w3.org/1999/xlink" ns12:href="#__lottie_element_2950"/></mask><mask id="__lottie_element_2943_1" mask-type="alpha"><use xmlns:ns13="http://www.w3.org/1999/xlink" ns13:href="#__lottie_element_2943"/></mask><clipPath id="__lottie_element_3041"><path d="M0,0 L73,0 L73,1 L0,1z"/></clipPath><clipPath id="__lottie_element_3045"><path d="M0,0 L74,0 L74,33 L0,33z"/></clipPath><clipPath id="__lottie_element_3051"><path d="M0,0 L73,0 L73,1 L0,1z"/></clipPath><clipPath id="__lottie_element_3055"><path d="M0,0 L74,0 L74,33 L0,33z"/></clipPath><linearGradient id="__lottie_element_3067" spreadMethod="pad" gradientUnits="userSpaceOnUse" x1="37" y1="0" x2="37" y2="33"><stop offset="0%" stop-color="rgb(0,102,227)" stop-opacity="0"/><stop offset="100%" stop-color="rgb(0,102,227)" stop-opacity="1"/></linearGradient><linearGradient id="__lottie_element_3077" spreadMethod="pad" gradientUnits="userSpaceOnUse" x1="37" y1="0" x2="37" y2="33"><stop offset="0%" stop-color="rgb(0,102,227)" stop-opacity="0"/><stop offset="100%" stop-color="rgb(0,102,227)" stop-opacity="1"/></linearGradient></defs><g clip-path="url(#__lottie_element_2934)"><g mask="url(#__lottie_element_2943_1)" style="display: block;"><g transform="matrix(1,0,0,1,13,17)" opacity="1"><g opacity="1" transform="matrix(1,0,0,1,0,0)"><path stroke-linecap="butt" stroke-linejoin="miter" fill-opacity="0" stroke-miterlimit="10" stroke="rgb(228,232,236)" stroke-opacity="1" stroke-width="2" d=" M14,0 C14,0 0,0 0,0 C0,0 0,18 0,18 C0,18 14,18 14,18 C14,18 14,0 14,0z"/></g><g opacity="1" transform="matrix(1,0,0,1,0,0)"><path fill="rgb(0,0,0)" fill-opacity="0" d=" M15,-1 C15,-1 -1,-1 -1,-1 C-1,-1 -1,19 -1,19 C-1,19 15,19 15,19 C15,19 15,-1 15,-1z"/></g></g></g><g mask="url(#__lottie_element_2950_1)" style="display: block;"><g transform="matrix(1,0,0,1,13,41)" opacity="1"><g opacity="1" transform="matrix(1,0,0,1,0,0)"><path stroke-linecap="butt" stroke-linejoin="miter" fill-opacity="0" stroke-miterlimit="10" stroke="rgb(228,232,236)" stroke-opacity="1" stroke-width="2" d=" M14,0 C14,0 0,0 0,0 C0,0 0,18 0,18 C0,18 14,18 14,18 C14,18 14,0 14,0z"/></g><g opacity="1" transform="matrix(1,0,0,1,0,0)"><path fill="rgb(0,0,0)" fill-opacity="0" d=" M15,-1 C15,-1 -1,-1 -1,-1 C-1,-1 -1,19 -1,19 C-1,19 15,19 15,19 C15,19 15,-1 15,-1z"/></g></g></g><g mask="url(#__lottie_element_2957_1)" style="display: block;"><g transform="matrix(1,0,0,1,13,65)" opacity="1"><g opacity="1" transform="matrix(1,0,0,1,0,0)"><path stroke-linecap="butt" stroke-linejoin="miter" fill-opacity="0" stroke-miterlimit="10" stroke="rgb(228,232,236)" stroke-opacity="1" stroke-width="2" d=" M14,0 C14,0 0,0 0,0 C0,0 0,18 0,18 C0,18 14,18 14,18 C14,18 14,0 14,0z"/></g><g opacity="1" transform="matrix(1,0,0,1,0,0)"><path fill="rgb(0,0,0)" fill-opacity="0" d=" M15,-1 C15,-1 -1,-1 -1,-1 C-1,-1 -1,19 -1,19 C-1,19 15,19 15,19 C15,19 15,-1 15,-1z"/></g></g></g><g mask="url(#__lottie_element_2964_1)" style="display: block;"><g transform="matrix(1,0,0,1,33,17)" opacity="1"><g opacity="1" transform="matrix(1,0,0,1,0,0)"><path stroke-linecap="butt" stroke-linejoin="miter" fill-opacity="0" stroke-miterlimit="10" stroke="rgb(228,232,236)" stroke-opacity="1" stroke-width="2" d=" M14,0 C14,0 0,0 0,0 C0,0 0,18 0,18 C0,18 14,18 14,18 C14,18 14,0 14,0z"/></g><g opacity="1" transform="matrix(1,0,0,1,0,0)"><path fill="rgb(0,0,0)" fill-opacity="0" d=" M15,-1 C15,-1 -1,-1 -1,-1 C-1,-1 -1,19 -1,19 C-1,19 15,19 15,19 C15,19 15,-1 15,-1z"/></g></g></g><g mask="url(#__lottie_element_2971_1)" style="display: block;"><g transform="matrix(1,0,0,1,33,41)" opacity="1"><g opacity="1" transform="matrix(1,0,0,1,0,0)"><path stroke-linecap="butt" stroke-linejoin="miter" fill-opacity="0" stroke-miterlimit="10" stroke="rgb(228,232,236)" stroke-opacity="1" stroke-width="2" d=" M14,0 C14,0 0,0 0,0 C0,0 0,18 0,18 C0,18 14,18 14,18 C14,18 14,0 14,0z"/></g><g opacity="1" transform="matrix(1,0,0,1,0,0)"><path fill="rgb(0,0,0)" fill-opacity="0" d=" M15,-1 C15,-1 -1,-1 -1,-1 C-1,-1 -1,19 -1,19 C-1,19 15,19 15,19 C15,19 15,-1 15,-1z"/></g></g></g><g mask="url(#__lottie_element_2978_1)" style="display: block;"><g transform="matrix(1,0,0,1,33,65)" opacity="1"><g opacity="1" transform="matrix(1,0,0,1,0,0)"><path stroke-linecap="butt" stroke-linejoin="miter" fill-opacity="0" stroke-miterlimit="10" stroke="rgb(228,232,236)" stroke-opacity="1" stroke-width="2" d=" M14,0 C14,0 0,0 0,0 C0,0 0,18 0,18 C0,18 14,18 14,18 C14,18 14,0 14,0z"/></g><g opacity="1" transform="matrix(1,0,0,1,0,0)"><path fill="rgb(0,0,0)" fill-opacity="0" d=" M15,-1 C15,-1 -1,-1 -1,-1 C-1,-1 -1,19 -1,19 C-1,19 15,19 15,19 C15,19 15,-1 15,-1z"/></g></g></g><g mask="url(#__lottie_element_2985_1)" style="display: block;"><g transform="matrix(1,0,0,1,53,17)" opacity="1"><g opacity="1" transform="matrix(1,0,0,1,0,0)"><path stroke-linecap="butt" stroke-linejoin="miter" fill-opacity="0" stroke-miterlimit="10" stroke="rgb(228,232,236)" stroke-opacity="1" stroke-width="2" d=" M14,0 C14,0 0,0 0,0 C0,0 0,18 0,18 C0,18 14,18 14,18 C14,18 14,0 14,0z"/></g><g opacity="1" transform="matrix(1,0,0,1,0,0)"><path fill="rgb(0,0,0)" fill-opacity="0" d=" M15,-1 C15,-1 -1,-1 -1,-1 C-1,-1 -1,19 -1,19 C-1,19 15,19 15,19 C15,19 15,-1 15,-1z"/></g></g></g><g mask="url(#__lottie_element_2992_1)" style="display: block;"><g transform="matrix(1,0,0,1,53,41)" opacity="1"><g opacity="1" transform="matrix(1,0,0,1,0,0)"><path stroke-linecap="butt" stroke-linejoin="miter" fill-opacity="0" stroke-miterlimit="10" stroke="rgb(228,232,236)" stroke-opacity="1" stroke-width="2" d=" M14,0 C14,0 0,0 0,0 C0,0 0,18 0,18 C0,18 14,18 14,18 C14,18 14,0 14,0z"/></g><g opacity="1" transform="matrix(1,0,0,1,0,0)"><path fill="rgb(0,0,0)" fill-opacity="0" d=" M15,-1 C15,-1 -1,-1 -1,-1 C-1,-1 -1,19 -1,19 C-1,19 15,19 15,19 C15,19 15,-1 15,-1z"/></g></g></g><g mask="url(#__lottie_element_2999_1)" style="display: block;"><g transform="matrix(1,0,0,1,53,65)" opacity="1"><g opacity="1" transform="matrix(1,0,0,1,0,0)"><path stroke-linecap="butt" stroke-linejoin="miter" fill-opacity="0" stroke-miterlimit="10" stroke="rgb(228,232,236)" stroke-opacity="1" stroke-width="2" d=" M14,0 C14,0 0,0 0,0 C0,0 0,18 0,18 C0,18 14,18 14,18 C14,18 14,0 14,0z"/></g><g opacity="1" transform="matrix(1,0,0,1,0,0)"><path fill="rgb(0,0,0)" fill-opacity="0" d=" M15,-1 C15,-1 -1,-1 -1,-1 C-1,-1 -1,19 -1,19 C-1,19 15,19 15,19 C15,19 15,-1 15,-1z"/></g></g></g><g mask="url(#__lottie_element_3006_1)" style="display: block;"><g transform="matrix(1,0,0,1,73,17)" opacity="1"><g opacity="1" transform="matrix(1,0,0,1,0,0)"><path stroke-linecap="butt" stroke-linejoin="miter" fill-opacity="0" stroke-miterlimit="10" stroke="rgb(228,232,236)" stroke-opacity="1" stroke-width="2" d=" M14,0 C14,0 0,0 0,0 C0,0 0,18 0,18 C0,18 14,18 14,18 C14,18 14,0 14,0z"/></g><g opacity="1" transform="matrix(1,0,0,1,0,0)"><path fill="rgb(0,0,0)" fill-opacity="0" d=" M15,-1 C15,-1 -1,-1 -1,-1 C-1,-1 -1,19 -1,19 C-1,19 15,19 15,19 C15,19 15,-1 15,-1z"/></g></g></g><g mask="url(#__lottie_element_3013_1)" style="display: block;"><g transform="matrix(1,0,0,1,73,41)" opacity="1"><g opacity="1" transform="matrix(1,0,0,1,0,0)"><path stroke-linecap="butt" stroke-linejoin="miter" fill-opacity="0" stroke-miterlimit="10" stroke="rgb(228,232,236)" stroke-opacity="1" stroke-width="2" d=" M14,0 C14,0 0,0 0,0 C0,0 0,18 0,18 C0,18 14,18 14,18 C14,18 14,0 14,0z"/></g><g opacity="1" transform="matrix(1,0,0,1,0,0)"><path fill="rgb(0,0,0)" fill-opacity="0" d=" M15,-1 C15,-1 -1,-1 -1,-1 C-1,-1 -1,19 -1,19 C-1,19 15,19 15,19 C15,19 15,-1 15,-1z"/></g></g></g><g mask="url(#__lottie_element_3020_1)" style="display: block;"><g transform="matrix(1,0,0,1,73,65)" opacity="1"><g opacity="1" transform="matrix(1,0,0,1,0,0)"><path stroke-linecap="butt" stroke-linejoin="miter" fill-opacity="0" stroke-miterlimit="10" stroke="rgb(228,232,236)" stroke-opacity="1" stroke-width="2" d=" M14,0 C14,0 0,0 0,0 C0,0 0,18 0,18 C0,18 14,18 14,18 C14,18 14,0 14,0z"/></g><g opacity="1" transform="matrix(1,0,0,1,0,0)"><path fill="rgb(0,0,0)" fill-opacity="0" d=" M15,-1 C15,-1 -1,-1 -1,-1 C-1,-1 -1,19 -1,19 C-1,19 15,19 15,19 C15,19 15,-1 15,-1z"/></g></g></g><g clip-path="url(#__lottie_element_3025)" transform="matrix(1,0,0,1,13,17)" opacity="1" style="display: block;"><g clip-path="url(#__lottie_element_3041)" transform="matrix(1,0,0,1,1,-2)" opacity="1" style="display: block;"><g transform="matrix(1.333299994468689,0,0,1.333299994468689,0,0)" opacity="1" style="display: block;"><g opacity="1" transform="matrix(1,0,0,1,0,0)"><g opacity="1" transform="matrix(0.75,0,0,0.75,0,0)"><path stroke-linecap="butt" stroke-linejoin="miter" fill-opacity="0" stroke-miterlimit="4" stroke="rgb(33,40,76)" stroke-opacity="1" stroke-width="1" d=" M0,0.5 C0,0.5 73,0.5 73,0.5"/></g></g></g><g transform="matrix(1,0,0,1,0,0)" opacity="1" style="display: block;"><path fill="rgb(0,0,0)" fill-opacity="0" d=" M73,0 C73,0 0,0 0,0 C0,0 0,1 0,1 C0,1 73,1 73,1 C73,1 73,0 73,0z"/></g></g><g clip-path="url(#__lottie_element_3045)" transform="matrix(1,0,0,1,0,-34)" opacity="0.15" style="display: block;"><g transform="matrix(1,0,0,1,0,0)" opacity="1" style="display: block;"><path fill="url(#__lottie_element_3067)" fill-opacity="1" d=" M74,0 C74,0 0,0 0,0 C0,0 0,33 0,33 C0,33 74,33 74,33 C74,33 74,0 74,0z"/></g></g><g clip-path="url(#__lottie_element_3051)" transform="matrix(-1,0,0,-1,73,68)" opacity="1" style="display: block;"><g transform="matrix(1.333299994468689,0,0,1.333299994468689,0,0)" opacity="1" style="display: block;"><g opacity="1" transform="matrix(1,0,0,1,0,0)"><g opacity="1" transform="matrix(0.75,0,0,0.75,0,0)"><path stroke-linecap="butt" stroke-linejoin="miter" fill-opacity="0" stroke-miterlimit="4" stroke="rgb(33,40,76)" stroke-opacity="1" stroke-width="1" d=" M0,0.5 C0,0.5 73,0.5 73,0.5"/></g></g></g><g transform="matrix(1,0,0,1,0,0)" opacity="1" style="display: block;"><path fill="rgb(0,0,0)" fill-opacity="0" d=" M73,0 C73,0 0,0 0,0 C0,0 0,1 0,1 C0,1 73,1 73,1 C73,1 73,0 73,0z"/></g></g><g clip-path="url(#__lottie_element_3055)" transform="matrix(-1,0,0,-1,74,100)" opacity="0.15" style="display: block;"><g transform="matrix(1,0,0,1,0,0)" opacity="1" style="display: block;"><path fill="url(#__lottie_element_3077)" fill-opacity="1" d=" M74,0 C74,0 0,0 0,0 C0,0 0,33 0,33 C0,33 74,33 74,33 C74,33 74,0 74,0z"/></g></g></g><g transform="matrix(1,0,0,1,36,29)" opacity="1" style="display: block;"><path fill="rgb(250,252,255)" fill-opacity="1" d=" M25.799999237060547,0 C25.799999237060547,0 0,20.799999237060547 0,20.799999237060547 C0,20.799999237060547 9.600000381469727,26.5 9.600000381469727,26.5 C9.600000381469727,26.5 2.200000047683716,42 2.200000047683716,42 C2.200000047683716,42 28,21.200000762939453 28,21.200000762939453 C28,21.200000762939453 18.399999618530273,15.800000190734863 18.399999618530273,15.800000190734863 C18.399999618530273,15.800000190734863 25.799999237060547,0 25.799999237060547,0 C25.799999237060547,0 25.799999237060547,0 25.799999237060547,0z"/></g><g mask="url(#__lottie_element_3035_1)" style="display: block;"><g transform="matrix(1,0,0,1,36,29)" opacity="1"><g opacity="1" transform="matrix(1,0,0,1,0,0)"><path stroke-linecap="butt" stroke-linejoin="miter" fill-opacity="0" stroke-miterlimit="10" stroke="rgb(33,42,75)" stroke-opacity="1" stroke-width="2" d=" M25.799999237060547,0 C25.799999237060547,0 0,20.799999237060547 0,20.799999237060547 C0,20.799999237060547 9.600000381469727,26.5 9.600000381469727,26.5 C9.600000381469727,26.5 2.200000047683716,42 2.200000047683716,42 C2.200000047683716,42 28,21.200000762939453 28,21.200000762939453 C28,21.200000762939453 18.399999618530273,15.800000190734863 18.399999618530273,15.800000190734863 C18.399999618530273,15.800000190734863 25.799999237060547,0 25.799999237060547,0 C25.799999237060547,0 25.799999237060547,0 25.799999237060547,0z"/></g><g opacity="1" transform="matrix(1,0,0,1,0,0)"><path fill="rgb(0,0,0)" fill-opacity="0" d=" M38,-10 C38,-10 -10,-10 -10,-10 C-10,-10 -10,52 -10,52 C-10,52 38,52 38,52 C38,52 38,-10 38,-10z"/></g></g></g></g></svg>