<svg xmlns="http://www.w3.org/2000/svg" xmlns:xlink="http://www.w3.org/1999/xlink" width="2000" zoomAndPan="magnify" viewBox="0 0 1500 1499.999933" height="2000" preserveAspectRatio="xMidYMid meet" version="1.0"><defs><clipPath id="84774a969e"><path d="M 168.71875 357.171875 L 1226.96875 357.171875 L 1226.96875 1228.671875 L 168.71875 1228.671875 Z M 168.71875 357.171875 " clip-rule="nonzero"/></clipPath></defs><g clip-path="url(#84774a969e)"><path fill="#3a3d50" d="M 1198.191406 748.382812 L 1147.601562 772.125 L 1151.605469 776.796875 C 1151.605469 776.796875 1151.605469 776.800781 1151.609375 776.800781 L 1171.382812 799.886719 C 1172.542969 801.238281 1172.988281 803.058594 1172.585938 804.789062 C 1172.1875 806.523438 1170.988281 807.960938 1169.355469 808.667969 L 1155.628906 814.605469 L 1163.648438 822.902344 L 1182.417969 815.082031 C 1184.464844 814.226562 1186.808594 814.664062 1188.421875 816.1875 L 1207.859375 834.625 C 1209.1875 835.886719 1209.820312 837.71875 1209.539062 839.53125 C 1209.261719 841.34375 1208.117188 842.902344 1206.472656 843.710938 L 1153.449219 869.722656 C 1151.28125 870.777344 1148.691406 870.339844 1146.996094 868.625 L 1130.324219 851.699219 L 1128.003906 852.632812 L 1149.882812 877.269531 C 1151.046875 878.582031 1151.527344 880.359375 1151.191406 882.078125 C 1150.847656 883.796875 1149.722656 885.253906 1148.148438 886.019531 L 855.175781 1028.648438 C 854.679688 1028.890625 854.160156 1029.023438 853.632812 1029.109375 C 853.492188 1029.132812 853.351562 1029.144531 853.210938 1029.15625 C 853.046875 1029.171875 852.886719 1029.210938 852.726562 1029.210938 C 852.59375 1029.210938 852.472656 1029.140625 852.34375 1029.132812 C 851.855469 1029.097656 851.382812 1028.996094 850.921875 1028.839844 C 850.71875 1028.769531 850.515625 1028.71875 850.324219 1028.625 C 849.695312 1028.324219 849.101562 1027.941406 848.605469 1027.40625 L 833.042969 1010.507812 L 827.230469 1004.199219 C 827.230469 1004.195312 827.226562 1004.191406 827.226562 1004.191406 L 821.160156 997.605469 L 817.542969 998.980469 L 822.984375 1005.867188 C 822.984375 1005.867188 822.988281 1005.867188 822.988281 1005.871094 L 839.679688 1027.003906 C 840.460938 1027.988281 840.878906 1029.195312 840.886719 1030.425781 C 840.890625 1030.835938 840.847656 1031.25 840.761719 1031.660156 C 840.40625 1033.292969 839.339844 1034.683594 837.851562 1035.449219 L 789.550781 1060.316406 C 789.035156 1060.582031 788.492188 1060.730469 787.949219 1060.824219 C 787.792969 1060.851562 787.636719 1060.867188 787.480469 1060.878906 C 787.316406 1060.894531 787.15625 1060.9375 786.992188 1060.9375 C 786.859375 1060.9375 786.738281 1060.863281 786.609375 1060.855469 C 786.089844 1060.820312 785.582031 1060.707031 785.09375 1060.53125 C 784.894531 1060.457031 784.691406 1060.402344 784.503906 1060.308594 C 783.855469 1059.984375 783.238281 1059.570312 782.746094 1058.992188 L 743.152344 1012.984375 L 737.917969 1015.3125 L 758.605469 1043.140625 C 759.601562 1044.484375 759.949219 1046.199219 759.550781 1047.820312 C 759.148438 1049.445312 758.046875 1050.800781 756.539062 1051.523438 L 719.667969 1069.246094 C 718.894531 1069.617188 718.066406 1069.796875 717.25 1069.796875 C 715.59375 1069.796875 713.976562 1069.066406 712.886719 1067.710938 L 687.300781 1035.921875 L 626.273438 1063.347656 L 655.070312 1098.34375 C 656.292969 1099.828125 656.664062 1101.835938 656.058594 1103.664062 L 638.734375 1155.90625 C 638.085938 1157.867188 636.410156 1159.308594 634.375 1159.660156 C 632.347656 1160.007812 630.277344 1159.214844 629.007812 1157.585938 L 606.28125 1128.472656 L 596.738281 1129.710938 L 604.132812 1157.164062 L 626.101562 1186.3125 C 627.207031 1187.78125 627.527344 1189.699219 626.945312 1191.445312 L 615.980469 1224.511719 C 615.332031 1226.472656 613.65625 1227.914062 611.621094 1228.265625 C 611.300781 1228.320312 610.984375 1228.347656 610.667969 1228.347656 C 608.960938 1228.347656 607.324219 1227.5625 606.253906 1226.191406 L 508.273438 1100.523438 L 485.859375 1109.769531 C 485.75 1109.816406 485.628906 1109.800781 485.515625 1109.839844 C 485.269531 1109.925781 485.039062 1110.042969 484.777344 1110.09375 C 484.425781 1110.164062 484.078125 1110.195312 483.730469 1110.195312 C 483.726562 1110.195312 483.726562 1110.195312 483.726562 1110.195312 C 483.726562 1110.195312 483.726562 1110.195312 483.722656 1110.195312 C 483.253906 1110.195312 482.789062 1110.128906 482.335938 1110.011719 C 482.21875 1109.980469 482.109375 1109.925781 481.992188 1109.886719 C 481.859375 1109.84375 481.734375 1109.792969 481.601562 1109.738281 C 481.414062 1109.664062 481.230469 1109.59375 481.050781 1109.496094 C 480.894531 1109.410156 480.75 1109.296875 480.597656 1109.195312 C 480.425781 1109.074219 480.238281 1108.980469 480.074219 1108.839844 C 480.074219 1108.839844 480.070312 1108.839844 480.070312 1108.835938 C 480.050781 1108.820312 480.042969 1108.796875 480.023438 1108.78125 C 479.988281 1108.75 479.960938 1108.707031 479.925781 1108.675781 C 479.78125 1108.542969 479.652344 1108.390625 479.523438 1108.238281 C 479.410156 1108.109375 479.277344 1108 479.175781 1107.859375 L 409.625 1010.871094 C 408.792969 1009.707031 408.433594 1008.265625 408.628906 1006.847656 L 411.640625 984.875 C 411.675781 984.617188 411.785156 984.390625 411.855469 984.144531 C 411.886719 984.03125 411.859375 983.910156 411.898438 983.796875 C 411.921875 983.726562 411.984375 983.679688 412.011719 983.609375 C 412.269531 982.957031 412.617188 982.351562 413.082031 981.847656 C 413.148438 981.777344 413.230469 981.734375 413.296875 981.667969 C 413.734375 981.242188 414.242188 980.902344 414.800781 980.636719 L 391.242188 950.417969 C 391.238281 950.417969 391.238281 950.414062 391.234375 950.414062 L 365.625 917.5625 L 303.289062 837.613281 L 301.027344 834.714844 L 236.292969 751.683594 L 236.246094 752.246094 C 236.246094 752.257812 236.238281 752.269531 236.238281 752.28125 L 236.066406 754.429688 C 235.886719 756.632812 234.4375 758.519531 232.359375 759.257812 L 176.191406 779.234375 C 174.425781 779.859375 172.453125 779.5625 170.953125 778.433594 C 169.449219 777.304688 168.613281 775.496094 168.730469 773.621094 L 177.957031 622.945312 C 178.101562 620.585938 179.710938 618.570312 181.984375 617.910156 L 241.214844 600.742188 C 243.371094 600.125 245.679688 600.832031 247.097656 602.558594 L 265.25 624.617188 L 275.945312 621.140625 L 261.089844 602.847656 L 247.949219 598.308594 C 246.699219 597.875 245.640625 597.011719 244.960938 595.875 L 239.960938 587.441406 C 239.109375 586.007812 238.941406 584.269531 239.503906 582.699219 C 240.066406 581.128906 241.300781 579.894531 242.867188 579.324219 L 311.464844 554.457031 C 311.898438 554.300781 312.351562 554.195312 312.8125 554.152344 L 352.542969 550.148438 C 353.167969 550.082031 353.808594 550.128906 354.425781 550.28125 L 378.296875 556.089844 L 475.925781 525.132812 L 495.769531 480.832031 C 496.402344 479.414062 497.59375 478.324219 499.0625 477.824219 L 682.847656 414.941406 C 685.132812 414.167969 687.65625 414.929688 689.117188 416.851562 L 692.078125 420.75 L 871.160156 357.703125 C 872.132812 357.363281 873.179688 357.292969 874.1875 357.507812 L 969.65625 377.890625 C 970.6875 378.109375 971.636719 378.617188 972.390625 379.355469 L 1209.625 610.300781 C 1210.382812 611.039062 1210.917969 611.976562 1211.160156 613.003906 L 1226.566406 677.027344 C 1226.835938 678.136719 1226.753906 679.304688 1226.339844 680.367188 L 1201.027344 745.347656 C 1200.503906 746.683594 1199.488281 747.769531 1198.191406 748.382812 Z M 1198.191406 748.382812 " fill-opacity="1" fill-rule="nonzero"/></g><path fill="#ffef6b" d="M 784.050781 1031.585938 L 794.878906 1044.984375 L 788.351562 1048.34375 L 776.824219 1034.949219 Z M 794.507812 1026.722656 L 805.039062 1039.75 L 811.339844 1036.507812 L 801.132812 1023.640625 Z M 816.949219 1016.285156 L 811.570312 1018.785156 L 821.484375 1031.285156 L 826.683594 1028.609375 Z M 1032.898438 910.554688 L 1044.605469 923.976562 L 1051.539062 920.601562 L 1039.890625 907.222656 Z M 1125.347656 866.5 L 1120.308594 868.898438 L 1131.417969 881.714844 L 1136.609375 879.1875 Z M 840.609375 1002.195312 L 854.019531 1016.757812 L 860.53125 1013.589844 L 847.570312 998.878906 Z M 1050.378906 902.226562 L 1061.964844 915.527344 L 1068.902344 912.148438 L 1057.371094 898.894531 Z M 1102.828125 877.230469 L 1114.054688 890.167969 L 1121 886.785156 L 1109.824219 873.894531 Z M 1085.34375 885.5625 L 1096.691406 898.621094 L 1103.632812 895.238281 L 1092.339844 882.226562 Z M 1067.863281 893.894531 L 1079.328125 907.070312 L 1086.269531 903.691406 L 1074.859375 890.558594 Z M 1015.414062 918.886719 L 1027.238281 932.429688 L 1034.171875 929.054688 L 1022.402344 915.558594 Z M 910.523438 968.875 L 923.058594 983.148438 L 929.984375 979.777344 L 917.5 965.550781 Z M 893.039062 977.207031 L 905.695312 991.601562 L 912.621094 988.230469 L 900.019531 973.882812 Z M 928.003906 960.546875 L 940.421875 974.695312 L 947.351562 971.320312 L 934.988281 957.214844 Z M 875.554688 985.539062 L 888.332031 1000.054688 L 895.257812 996.683594 L 882.535156 982.214844 Z M 858.074219 993.871094 L 870.96875 1008.507812 L 877.890625 1005.136719 L 865.050781 990.546875 Z M 980.449219 935.550781 L 992.511719 949.335938 L 999.445312 945.960938 L 987.4375 932.222656 Z M 997.933594 927.21875 L 1009.878906 940.882812 L 1016.8125 937.507812 L 1004.921875 923.890625 Z M 945.484375 952.214844 L 957.785156 966.242188 L 964.714844 962.867188 L 952.472656 948.886719 Z M 962.972656 943.878906 L 975.152344 957.789062 L 982.082031 954.414062 L 969.953125 940.554688 Z M 962.972656 943.878906 " fill-opacity="1" fill-rule="nonzero"/><path fill="#061dcd" d="M 445.585938 979.96875 L 510.445312 1069.03125 L 500.964844 1072.941406 L 495.59375 1075.160156 L 490.761719 1077.15625 L 425.902344 988.097656 L 427.273438 987.53125 L 432.640625 985.3125 Z M 766.949219 747.726562 L 777.378906 744.007812 C 776.984375 741.164062 776.613281 738.285156 776.257812 735.382812 L 764.191406 739.683594 L 765.625 744.988281 C 765.976562 745.632812 766.457031 746.597656 766.949219 747.726562 Z M 763.277344 698.195312 L 757.214844 700.359375 C 757.152344 703.246094 757.195312 706.222656 757.402344 709.3125 L 773.109375 703.714844 C 773.058594 703.089844 773.011719 702.476562 772.960938 701.855469 C 769.65625 700.753906 766.410156 699.554688 763.277344 698.195312 Z M 580.25 958.660156 L 809.488281 856.238281 L 802.40625 929.226562 L 786.332031 928.652344 C 785.425781 928.617188 784.675781 928.777344 783.917969 929.105469 L 586.523438 1014.121094 L 585.960938 1014.363281 L 585.183594 1013.414062 L 581.621094 1009.085938 L 578.058594 1004.753906 L 563.734375 987.347656 L 563.808594 986.203125 L 565.257812 963.375 C 565.941406 963.664062 566.660156 963.863281 567.414062 963.863281 C 568.175781 963.863281 568.953125 963.707031 569.691406 963.375 L 569.910156 963.277344 L 575.082031 960.96875 Z M 695.492188 925.003906 C 696.414062 927.097656 698.464844 928.347656 700.621094 928.347656 C 701.371094 928.347656 702.136719 928.195312 702.871094 927.871094 L 779.757812 894 C 782.585938 892.753906 783.867188 889.449219 782.621094 886.621094 C 781.375 883.789062 778.078125 882.496094 775.246094 883.753906 L 698.359375 917.625 C 695.53125 918.871094 694.246094 922.175781 695.492188 925.003906 Z M 631.511719 946.34375 C 631.527344 948.570312 632.867188 950.578125 634.917969 951.453125 L 655.464844 960.191406 C 656.167969 960.488281 656.910156 960.636719 657.65625 960.636719 C 658.425781 960.636719 659.199219 960.476562 659.917969 960.160156 L 687.160156 948.132812 C 689.253906 947.207031 690.574219 945.101562 690.492188 942.8125 C 690.410156 940.527344 688.945312 938.515625 686.789062 937.746094 L 664.496094 929.738281 C 663.140625 929.246094 661.652344 929.304688 660.335938 929.886719 L 634.839844 941.183594 C 632.804688 942.085938 631.492188 944.113281 631.511719 946.34375 Z M 580.835938 968.726562 C 580.890625 970.992188 582.300781 973 584.414062 973.816406 L 584.429688 973.820312 L 605.851562 982.101562 C 606.5 982.351562 607.183594 982.476562 607.867188 982.476562 C 608.640625 982.476562 609.410156 982.320312 610.128906 982 L 637.484375 969.921875 C 639.523438 969.023438 640.835938 966.996094 640.820312 964.765625 C 640.804688 962.53125 639.464844 960.527344 637.414062 959.652344 L 616.894531 950.921875 C 615.472656 950.316406 613.851562 950.328125 612.433594 950.957031 L 584.164062 963.476562 C 583.300781 963.859375 582.605469 964.476562 582.050781 965.195312 C 581.277344 966.191406 580.804688 967.414062 580.835938 968.726562 Z M 769.609375 507.777344 C 771.289062 510.269531 772.878906 512.71875 774.382812 515.097656 L 808.320312 503 C 807.175781 500.34375 805.988281 497.75 804.753906 495.246094 Z M 757.488281 491.191406 C 759.363281 493.546875 761.171875 495.914062 762.917969 498.277344 L 799.386719 485.277344 C 797.871094 482.652344 796.363281 480.160156 794.886719 477.859375 Z M 780.320312 524.863281 C 781.898438 527.574219 783.316406 530.089844 784.566406 532.375 L 814.761719 521.609375 C 814.046875 518.855469 813.21875 516.140625 812.316406 513.457031 Z M 774.96875 723.957031 C 774.664062 721.042969 774.375 718.128906 774.105469 715.242188 L 759.035156 720.613281 L 761.261719 728.84375 Z M 1198.71875 676.917969 L 1200.039062 669.675781 C 1200.597656 666.632812 1198.582031 663.71875 1195.539062 663.164062 C 1192.480469 662.605469 1189.585938 664.625 1189.03125 667.667969 L 1187.691406 675 L 1098.53125 714.835938 L 1098.148438 715.007812 C 1098.207031 714.871094 1098.269531 714.738281 1098.328125 714.597656 C 1100.089844 710.40625 1101.773438 706.125 1103.257812 701.699219 C 1104.242188 698.769531 1102.667969 695.59375 1099.738281 694.609375 C 1096.785156 693.625 1093.632812 695.207031 1092.648438 698.136719 C 1091.863281 700.472656 1090.984375 702.738281 1090.117188 705.011719 C 1089.355469 706.996094 1088.570312 708.933594 1087.75 710.855469 C 1086.933594 712.773438 1086.128906 714.703125 1085.261719 716.550781 C 1085.195312 716.683594 1085.144531 716.832031 1085.078125 716.964844 C 1084.457031 718.269531 1084.433594 719.683594 1084.816406 720.964844 L 942.652344 784.484375 C 939.828125 785.742188 938.5625 789.050781 939.820312 791.875 C 940.753906 793.957031 942.796875 795.191406 944.9375 795.191406 C 945.699219 795.191406 946.476562 795.035156 947.214844 794.703125 L 1095.464844 728.464844 L 1100.796875 726.085938 L 1106.125 723.703125 L 1191.546875 685.539062 L 1206.742188 699.835938 L 1191.410156 739.199219 L 1140.046875 763.304688 L 1136.191406 765.113281 L 1134.792969 765.769531 L 1129.535156 768.238281 L 1093.15625 785.3125 C 1092.023438 785.84375 1091.101562 786.742188 1090.535156 787.859375 L 1084.972656 798.898438 L 813.988281 925.773438 L 821.246094 850.984375 L 826.90625 848.453125 C 829.730469 847.195312 830.996094 843.886719 829.738281 841.0625 C 828.472656 838.242188 825.15625 836.96875 822.34375 838.234375 L 818.09375 840.132812 C 817.492188 839.8125 816.835938 839.570312 816.117188 839.488281 C 772.890625 834.4375 729.96875 822.558594 688.523438 804.179688 C 685.699219 802.929688 682.390625 804.203125 681.136719 807.027344 C 679.886719 809.855469 681.160156 813.160156 683.984375 814.414062 C 721.519531 831.058594 760.265625 842.484375 799.375 848.496094 L 577.238281 947.742188 L 572.070312 950.050781 L 566.902344 952.363281 L 565.128906 953.15625 C 563.820312 953.738281 562.890625 954.785156 562.347656 956 L 301.15625 634.421875 L 297.378906 629.773438 L 294.917969 626.742188 L 293.605469 625.128906 L 291.136719 622.085938 L 287.355469 617.429688 L 273.953125 600.929688 L 380.191406 567.234375 L 481.703125 535.042969 C 483.222656 534.5625 484.464844 533.453125 485.117188 531.996094 L 504.992188 487.628906 L 682.648438 426.839844 L 685.636719 430.769531 C 686.117188 431.402344 686.734375 431.855469 687.394531 432.222656 C 654.828125 440.882812 626.101562 455.1875 603.910156 474.664062 C 586.574219 489.882812 573.847656 507.484375 566.039062 526.804688 C 565.144531 529.015625 564.320312 531.246094 563.558594 533.5 C 562.824219 535.660156 562.148438 537.84375 561.535156 540.042969 C 558.457031 551.089844 556.886719 562.605469 556.886719 574.492188 C 556.886719 673.941406 668.886719 769.496094 806.554688 787.496094 C 821.5625 789.460938 836.410156 790.417969 850.953125 790.417969 C 855.382812 790.417969 859.773438 790.308594 864.140625 790.132812 C 864.175781 790.410156 864.125 790.6875 864.203125 790.964844 L 870.691406 813.667969 C 865.859375 813.5 860.933594 813.230469 855.636719 812.816406 C 852.503906 812.550781 849.859375 814.882812 849.621094 817.960938 C 849.378906 821.042969 851.679688 823.738281 854.761719 823.976562 C 859.347656 824.335938 863.648438 824.574219 867.878906 824.753906 C 868.910156 826.460938 870.707031 827.496094 872.632812 827.496094 C 873.390625 827.496094 874.171875 827.339844 874.910156 827.007812 L 900.984375 815.359375 C 903.8125 814.097656 905.074219 810.789062 903.816406 807.964844 C 902.550781 805.144531 899.238281 803.867188 896.421875 805.136719 L 881.769531 811.683594 L 875.425781 789.476562 C 929.273438 785.355469 977.296875 767.609375 1010.652344 738.332031 C 1030.59375 720.824219 1044.398438 700.148438 1051.671875 677.339844 C 1052.351562 675.214844 1052.972656 673.074219 1053.539062 670.910156 C 1054.121094 668.671875 1054.640625 666.414062 1055.101562 664.136719 C 1056.78125 655.816406 1057.675781 647.265625 1057.675781 638.507812 C 1057.675781 551.902344 972.730469 468.277344 859.878906 436.226562 C 857.101562 435.4375 854.296875 434.707031 851.484375 433.984375 C 837.355469 430.335938 822.84375 427.445312 808.007812 425.503906 C 771.902344 420.78125 736.699219 421.890625 704.574219 428.21875 L 873.390625 368.785156 L 965.742188 388.5 L 1200.175781 616.726562 C 1198.910156 617.535156 1197.953125 618.816406 1197.660156 620.410156 L 1195.09375 634.457031 C 1194.539062 637.5 1196.554688 640.414062 1199.59375 640.96875 C 1199.9375 641.035156 1200.273438 641.0625 1200.605469 641.0625 C 1202.789062 641.0625 1204.703125 639.746094 1205.613281 637.789062 L 1215.273438 677.941406 L 1211.121094 688.589844 Z M 523.46875 683.054688 C 525.917969 681.171875 526.378906 677.65625 524.496094 675.207031 C 524.125 674.726562 523.792969 674.21875 523.433594 673.730469 L 550.46875 668.886719 C 550.621094 669.75 550.910156 670.59375 551.484375 671.335938 C 552.519531 672.671875 553.53125 674.027344 554.539062 675.382812 C 556.875 678.511719 559.292969 681.746094 562.015625 684.800781 C 563.121094 686.042969 564.65625 686.679688 566.195312 686.679688 C 567.519531 686.679688 568.847656 686.210938 569.914062 685.261719 C 572.226562 683.207031 572.429688 679.667969 570.375 677.359375 C 567.972656 674.660156 565.804688 671.757812 563.511719 668.683594 C 562.460938 667.277344 561.414062 665.871094 560.339844 664.484375 C 559.625 663.5625 558.65625 663.027344 557.625 662.691406 C 557.617188 662.429688 557.691406 662.179688 557.644531 661.917969 C 557.097656 658.875 554.152344 656.839844 551.148438 657.394531 L 512.847656 664.25 C 509.800781 664.796875 507.777344 667.707031 508.324219 670.746094 C 508.589844 672.25 509.464844 673.457031 510.617188 674.273438 C 510.769531 674.96875 511.042969 675.644531 511.472656 676.265625 C 512.820312 678.210938 514.175781 680.148438 515.617188 682.027344 C 516.722656 683.460938 518.382812 684.214844 520.0625 684.214844 C 521.25 684.214844 522.453125 683.835938 523.46875 683.054688 Z M 633.84375 774.90625 C 594.898438 749.816406 561.410156 720.492188 534.300781 687.742188 C 532.335938 685.359375 528.800781 685.03125 526.421875 687 C 524.042969 688.96875 523.707031 692.5 525.679688 694.878906 C 553.515625 728.515625 587.871094 758.605469 627.785156 784.316406 C 628.722656 784.917969 629.769531 785.207031 630.808594 785.207031 C 632.648438 785.207031 634.449219 784.304688 635.519531 782.640625 C 637.195312 780.042969 636.445312 776.582031 633.84375 774.90625 Z M 666.253906 793.296875 C 665.140625 792.722656 664.015625 792.164062 662.894531 791.609375 C 659.964844 790.160156 657.203125 788.789062 654.636719 787.164062 C 652.019531 785.515625 648.5625 786.292969 646.914062 788.90625 C 645.261719 791.519531 646.039062 794.976562 648.652344 796.628906 C 651.710938 798.5625 654.867188 800.125 657.921875 801.640625 C 658.996094 802.171875 660.070312 802.707031 661.140625 803.253906 C 661.957031 803.671875 662.832031 803.875 663.691406 803.875 C 665.722656 803.875 667.683594 802.765625 668.675781 800.832031 C 670.085938 798.082031 669.003906 794.707031 666.253906 793.296875 Z M 831.496094 815.996094 C 831.925781 812.933594 829.796875 810.101562 826.738281 809.667969 C 780.6875 803.171875 737.191406 790.757812 697.441406 772.773438 C 654.972656 753.683594 618.035156 728.09375 587.652344 696.710938 C 585.5 694.492188 581.953125 694.4375 579.734375 696.582031 C 577.515625 698.734375 577.457031 702.277344 579.609375 704.5 C 610.984375 736.902344 649.085938 763.308594 692.84375 782.976562 C 733.546875 801.394531 778.070312 814.105469 825.171875 820.753906 C 825.4375 820.792969 825.699219 820.808594 825.960938 820.808594 C 828.703125 820.808594 831.101562 818.789062 831.496094 815.996094 Z M 1110.875 735.660156 L 1122.96875 748.953125 C 1124.050781 750.144531 1125.566406 750.785156 1127.109375 750.785156 C 1127.746094 750.785156 1128.378906 750.632812 1129 750.40625 C 1129.082031 750.378906 1129.171875 750.390625 1129.25 750.359375 L 1177.832031 730.246094 C 1179.558594 729.53125 1180.8125 727.996094 1181.179688 726.164062 C 1181.542969 724.328125 1180.964844 722.433594 1179.640625 721.109375 L 1166.988281 708.492188 C 1165.394531 706.90625 1163.007812 706.425781 1160.9375 707.269531 L 1112.917969 726.703125 C 1111.886719 727.121094 1111.054688 727.851562 1110.441406 728.738281 C 1110.042969 729.316406 1109.71875 729.949219 1109.558594 730.648438 C 1109.152344 732.433594 1109.640625 734.304688 1110.875 735.660156 Z M 884.4375 834.828125 C 881.605469 836.0625 880.316406 839.363281 881.550781 842.195312 C 882.476562 844.296875 884.527344 845.554688 886.6875 845.554688 C 887.433594 845.554688 888.195312 845.402344 888.925781 845.082031 L 1068.421875 766.574219 C 1071.257812 765.335938 1072.546875 762.035156 1071.308594 759.203125 C 1070.066406 756.371094 1066.773438 755.070312 1063.9375 756.320312 Z M 877.742188 402.179688 C 871.175781 400.128906 864.292969 398.175781 857.289062 396.378906 C 854.316406 395.617188 851.246094 397.410156 850.472656 400.40625 C 849.703125 403.398438 851.507812 406.453125 854.5 407.21875 C 861.324219 408.972656 868.019531 410.871094 874.402344 412.867188 C 874.957031 413.039062 875.523438 413.121094 876.074219 413.121094 C 878.457031 413.121094 880.667969 411.585938 881.417969 409.191406 C 882.339844 406.238281 880.691406 403.101562 877.742188 402.179688 Z M 1103.589844 581.714844 C 1094.5 555.15625 1078.777344 529.371094 1058.164062 507.1875 C 1040.0625 487.296875 1017.363281 468.875 990.6875 452.421875 C 967.660156 438.246094 941.523438 425.4375 912.992188 414.347656 C 910.117188 413.226562 906.867188 414.648438 905.746094 417.535156 C 904.628906 420.417969 906.054688 423.660156 908.9375 424.78125 C 936.835938 435.628906 962.367188 448.132812 984.816406 461.953125 C 1010.597656 477.851562 1032.488281 495.605469 1049.921875 514.765625 C 1069.515625 535.847656 1084.410156 560.253906 1093 585.335938 C 1101.878906 611.382812 1104.351562 639.6875 1100.144531 667.175781 C 1099.675781 670.230469 1101.777344 673.089844 1104.828125 673.558594 C 1105.117188 673.601562 1105.402344 673.621094 1105.683594 673.621094 C 1108.402344 673.621094 1110.785156 671.640625 1111.207031 668.871094 C 1115.691406 639.605469 1113.054688 609.472656 1103.589844 581.714844 Z M 352.710938 561.382812 L 314.625 565.21875 L 253.039062 587.546875 L 253.542969 588.398438 L 264.503906 592.179688 L 357.746094 562.609375 Z M 728.636719 543.289062 C 732.089844 545.457031 735.085938 547.429688 737.582031 549.125 L 763.351562 539.9375 C 761.300781 537.710938 759.105469 535.484375 756.769531 533.261719 Z M 808.007812 544.546875 C 808.25 544.578125 808.484375 544.636719 808.726562 544.667969 L 817.714844 541.464844 C 817.621094 538.542969 817.378906 535.621094 816.96875 532.707031 L 789.804688 542.390625 C 790.054688 542.890625 790.273438 543.339844 790.445312 543.695312 C 796.183594 543.542969 802.050781 543.769531 808.007812 544.546875 Z M 780.617188 763.757812 C 780.082031 761.027344 779.574219 758.1875 779.089844 755.28125 L 769.285156 758.777344 C 769.195312 760.496094 768.875 762.226562 768.128906 763.867188 C 767.53125 765.175781 766.566406 766.664062 765.046875 767.988281 C 765.765625 768.171875 766.480469 768.359375 767.199219 768.542969 Z M 893.074219 526.480469 L 862.894531 537.242188 C 862.402344 540.625 861.835938 543.855469 861.226562 546.859375 L 888.085938 537.285156 C 890 533.785156 891.691406 530.167969 893.074219 526.480469 Z M 857.207031 562.84375 C 859.246094 564.207031 861.21875 565.621094 863.113281 567.09375 L 867.207031 565.632812 C 870.21875 562.382812 874.058594 557.9375 877.96875 552.777344 L 858.09375 559.859375 C 857.78125 560.957031 857.484375 561.949219 857.207031 562.84375 Z M 896.585938 507.304688 C 896.546875 506.546875 896.449219 505.527344 896.339844 504.410156 L 864.503906 515.761719 C 864.515625 518.828125 864.414062 521.882812 864.214844 524.886719 L 896.359375 513.425781 C 896.582031 511.375 896.683594 509.332031 896.585938 507.304688 Z M 888.140625 486.425781 L 862.464844 495.578125 C 863.078125 498.375 863.539062 501.222656 863.863281 504.105469 L 894.0625 493.339844 L 895.519531 492.820312 C 895.5 491.742188 895.511719 490.707031 895.550781 489.707031 L 891.398438 485.261719 Z M 680.828125 518.519531 C 684.742188 520.148438 688.519531 521.816406 692.164062 523.5 L 728.761719 510.453125 C 725.933594 508.417969 723.089844 506.425781 720.238281 504.46875 Z M 706.167969 530.394531 C 709.707031 532.242188 713.035156 534.070312 716.171875 535.851562 L 747.257812 524.765625 C 744.746094 522.660156 742.15625 520.574219 739.503906 518.507812 Z M 967.3125 570.253906 C 968.015625 569.75 968.71875 569.246094 969.375 568.757812 L 964.640625 563.6875 L 962.378906 564.492188 L 956.734375 566.503906 L 954.191406 567.414062 C 951.546875 571.472656 947.828125 575.894531 943.015625 580.421875 L 962.65625 573.417969 L 962.75 573.386719 C 964.359375 572.320312 965.886719 571.277344 967.3125 570.253906 Z M 1044.039062 648.703125 C 1044.066406 648.773438 1044.109375 648.835938 1044.132812 648.90625 L 1044.207031 648.878906 Z M 1029.558594 633.195312 L 1026.335938 629.746094 C 1026.246094 629.914062 1026.175781 630.089844 1026.082031 630.257812 C 1025.152344 631.925781 1024 633.464844 1022.695312 634.90625 C 1022.363281 635.277344 1022.035156 635.648438 1021.679688 636.003906 L 1023.179688 635.472656 L 1028.824219 633.457031 Z M 737.335938 563.25 C 736.496094 562.832031 735.6875 562.417969 734.816406 561.992188 L 694.402344 576.402344 C 700.089844 577.292969 705.667969 578.316406 711.085938 579.476562 L 729.484375 572.917969 C 731.589844 569.46875 734.25 566.253906 737.335938 563.25 Z M 860.703125 454.394531 L 842.011719 461.058594 C 844.277344 463.15625 846.4375 465.394531 848.46875 467.777344 L 866.625 461.304688 L 868.425781 460.664062 L 862.101562 453.894531 Z M 874.421875 470.410156 L 855.238281 477.25 C 855.832031 478.234375 856.464844 479.1875 857.007812 480.210938 C 857.804688 481.71875 858.503906 483.285156 859.15625 484.875 L 880.34375 477.320312 L 883.074219 476.347656 L 876.75 469.578125 Z M 706.425781 593.023438 L 583.613281 636.804688 C 584.882812 639.351562 586.210938 641.886719 587.625 644.398438 L 721.15625 596.796875 C 721.476562 595.714844 721.78125 594.691406 722.074219 593.726562 C 720.25 593.589844 714.59375 593.195312 706.425781 593.023438 Z M 670.132812 594.078125 C 646.597656 596.015625 619.875 600.933594 600.539062 612.453125 C 599.734375 612.976562 592.503906 617.484375 584.164062 617.484375 C 582.886719 617.488281 581.582031 617.332031 580.273438 617.089844 L 575.878906 618.65625 C 576.8125 621.316406 577.8125 623.96875 578.90625 626.601562 Z M 643.328125 708.167969 C 643.328125 708.167969 643.324219 708.167969 643.320312 708.167969 C 643.320312 708.171875 643.320312 708.171875 643.320312 708.171875 Z M 668.601562 678.253906 L 718.699219 660.390625 C 717.289062 657.859375 716.070312 655.285156 715.058594 652.664062 L 677.6875 665.988281 C 674.492188 669.746094 671.429688 673.824219 668.601562 678.253906 Z M 716.167969 614.144531 C 716.542969 612.785156 716.921875 611.421875 717.308594 610.050781 L 593.5625 654.167969 C 594.636719 655.824219 595.695312 657.484375 596.832031 659.125 C 604.917969 654.925781 618.523438 649.054688 641.371094 640.265625 C 671.03125 628.859375 702.292969 618.09375 715.390625 614.273438 C 715.644531 614.199219 715.910156 614.179688 716.167969 614.144531 Z M 678.957031 728.257812 L 674.3125 729.914062 C 675.339844 730.539062 676.40625 731.136719 677.449219 731.753906 C 677.886719 730.585938 678.414062 729.421875 678.957031 728.257812 Z M 698.304688 646.753906 L 712.152344 641.820312 C 711.949219 640.507812 711.871094 639.1875 711.78125 637.867188 C 707.5625 640.3125 702.992188 643.261719 698.304688 646.753906 Z M 720.195312 555.324219 C 716.433594 553.714844 712.488281 552.113281 708.339844 550.527344 L 648.835938 571.742188 C 655.699219 572.140625 662.683594 572.664062 669.671875 573.335938 Z M 569.21875 558.308594 C 568.796875 561.398438 568.457031 564.515625 568.28125 567.667969 L 658.03125 535.671875 C 652.667969 534.527344 647.152344 533.480469 641.460938 532.554688 Z M 712.335938 682.734375 C 715.546875 678.5625 718.5625 674.777344 721.378906 671.320312 L 660.765625 692.929688 C 659.578125 695.628906 658.460938 698.402344 657.464844 701.304688 C 657.140625 702.253906 656.546875 703.078125 655.785156 703.726562 L 711.421875 683.894531 C 711.730469 683.496094 712.027344 683.132812 712.335938 682.734375 Z M 593.105469 570.699219 C 600.609375 570.574219 609.203125 570.53125 618.511719 570.667969 L 691.558594 544.625 C 687.136719 543.195312 682.5625 541.816406 677.808594 540.503906 Z M 698.078125 700.535156 L 653.902344 716.285156 C 656.691406 718.316406 659.542969 720.304688 662.4375 722.261719 L 688.3125 713.035156 C 691.257812 709.035156 694.542969 704.886719 698.078125 700.535156 Z M 698.078125 700.535156 " fill-opacity="1" fill-rule="nonzero"/><path fill="#fff6ef" d="M 1046.347656 634.773438 L 1043.597656 631.832031 C 1043.589844 631.824219 1043.585938 631.816406 1043.578125 631.8125 L 1028.941406 616.140625 C 1028.941406 616.136719 1028.9375 616.132812 1028.933594 616.132812 L 1028.550781 615.71875 C 1026.976562 599.117188 1018.492188 558.585938 1001.214844 551.378906 C 995.839844 549.136719 990.136719 550.292969 985.179688 554.65625 C 984.964844 554.847656 984.753906 555.0625 984.570312 555.285156 C 984.488281 555.378906 982.335938 557.890625 978.089844 561.6875 L 970.351562 553.402344 C 970.347656 553.398438 970.34375 553.394531 970.339844 553.390625 L 961.207031 543.609375 C 961.140625 536.144531 959.132812 527.398438 953.242188 517.820312 C 940.707031 497.421875 920.667969 479.074219 907.628906 476.046875 C 904.71875 475.371094 901.929688 476.011719 899.78125 477.839844 L 876.835938 453.273438 C 973.351562 486.949219 1044.070312 559.449219 1046.347656 634.773438 Z M 594.152344 1041.9375 L 644.460938 1103.070312 L 631.398438 1142.457031 L 613.136719 1119.066406 C 611.921875 1117.507812 609.976562 1116.71875 608.003906 1116.957031 L 588.949219 1119.433594 C 587.347656 1119.644531 585.914062 1120.53125 585.019531 1121.875 C 584.121094 1123.21875 583.847656 1124.882812 584.265625 1126.441406 L 593.605469 1161.125 C 593.789062 1161.8125 594.105469 1162.464844 594.539062 1163.035156 L 615.398438 1190.707031 L 608.648438 1211.054688 L 518.5 1095.433594 C 518.953125 1094.839844 519.308594 1094.167969 519.492188 1093.425781 L 524.59375 1072.835938 C 524.710938 1072.367188 524.746094 1071.898438 524.742188 1071.425781 C 524.738281 1071.28125 524.71875 1071.144531 524.703125 1071 C 524.675781 1070.671875 524.621094 1070.351562 524.535156 1070.03125 C 524.496094 1069.882812 524.449219 1069.734375 524.398438 1069.585938 C 524.285156 1069.277344 524.140625 1068.980469 523.972656 1068.695312 C 523.898438 1068.570312 523.839844 1068.441406 523.757812 1068.324219 C 523.730469 1068.28125 523.714844 1068.234375 523.683594 1068.191406 L 452.042969 969.824219 C 450.523438 967.730469 447.773438 966.953125 445.382812 967.945312 L 425.5 976.152344 L 401.828125 945.792969 L 407.542969 926.292969 C 408.035156 924.605469 407.707031 922.78125 406.65625 921.371094 L 360.160156 859.0625 C 358.894531 857.367188 356.796875 856.535156 354.695312 856.898438 C 352.613281 857.269531 350.914062 858.78125 350.3125 860.8125 L 346.238281 874.492188 L 313.691406 832.75 L 318.15625 810.09375 C 318.472656 808.492188 318.074219 806.835938 317.066406 805.550781 L 271.128906 747.101562 C 269.753906 745.351562 267.476562 744.589844 265.324219 745.144531 C 263.171875 745.699219 261.554688 747.476562 261.199219 749.671875 L 259.101562 762.730469 L 237.667969 735.242188 L 243.644531 663.726562 L 244.261719 656.378906 C 244.285156 656.085938 244.183594 655.828125 244.164062 655.542969 C 244 653.171875 242.394531 651.234375 240.109375 650.613281 C 239.785156 650.527344 239.496094 650.363281 239.148438 650.335938 C 237.238281 650.160156 235.542969 651.054688 234.414062 652.449219 C 233.726562 653.292969 233.203125 654.28125 233.105469 655.445312 L 226.367188 736.042969 C 226.347656 736.179688 226.285156 736.300781 226.273438 736.441406 L 225.195312 749.925781 L 180.421875 765.847656 L 188.890625 627.566406 L 240.792969 612.519531 L 260.25 636.164062 L 264.0625 640.796875 L 267.878906 645.433594 L 552.28125 991.050781 L 562.695312 1003.707031 L 569.851562 1012.402344 L 573.414062 1016.730469 L 575.257812 1018.972656 L 576.976562 1021.058594 L 578.960938 1023.472656 L 579.96875 1024.699219 C 579.976562 1024.707031 579.980469 1024.71875 579.988281 1024.726562 L 582.660156 1027.972656 L 594.140625 1041.925781 C 594.144531 1041.929688 594.148438 1041.929688 594.152344 1041.9375 Z M 234.765625 635.5625 C 234.507812 638.644531 236.796875 641.351562 239.878906 641.605469 C 240.039062 641.621094 240.191406 641.625 240.351562 641.625 C 243.230469 641.625 245.679688 639.414062 245.921875 636.496094 L 246.167969 633.558594 C 246.425781 630.476562 244.136719 627.769531 241.054688 627.515625 C 237.949219 627.28125 235.269531 629.546875 235.011719 632.625 Z M 277.320312 704.671875 L 278.101562 696.8125 L 278.886719 688.953125 L 280.097656 676.800781 C 280.40625 673.726562 278.160156 670.984375 275.085938 670.679688 C 272.03125 670.375 269.265625 672.613281 268.960938 675.691406 L 268.855469 676.753906 L 267.285156 692.472656 L 265.5 710.363281 C 265.195312 713.441406 267.4375 716.183594 270.515625 716.488281 C 270.703125 716.507812 270.890625 716.519531 271.078125 716.519531 C 273.917969 716.519531 276.351562 714.363281 276.640625 711.476562 Z M 291.589844 722.023438 L 292.519531 714.339844 L 293.449219 706.660156 L 294.796875 695.496094 C 295.171875 692.429688 292.984375 689.640625 289.914062 689.269531 C 286.832031 688.878906 284.054688 691.085938 283.6875 694.15625 L 283.621094 694.707031 L 281.761719 710.074219 L 279.4375 729.292969 C 279.066406 732.359375 281.253906 735.152344 284.324219 735.519531 C 284.550781 735.550781 284.777344 735.5625 285 735.5625 C 287.792969 735.5625 290.207031 733.476562 290.550781 730.636719 Z M 305.925781 739.453125 L 308.050781 724.414062 L 309.5 714.1875 C 309.929688 711.128906 307.800781 708.292969 304.738281 707.863281 C 301.707031 707.429688 298.84375 709.558594 298.414062 712.621094 L 298.402344 712.683594 L 296.277344 727.722656 L 293.378906 748.226562 C 292.945312 751.285156 295.074219 754.117188 298.136719 754.550781 C 298.402344 754.589844 298.667969 754.605469 298.925781 754.605469 C 301.671875 754.605469 304.066406 752.589844 304.460938 749.792969 Z M 320.308594 756.941406 L 321.496094 749.574219 L 322.6875 742.210938 L 324.195312 732.875 C 324.6875 729.824219 322.613281 726.949219 319.558594 726.457031 C 316.636719 725.96875 313.917969 727.898438 313.269531 730.757812 C 313.242188 730.875 313.164062 730.96875 313.144531 731.089844 L 312.019531 738.050781 L 310.828125 745.417969 L 307.316406 767.160156 C 306.824219 770.210938 308.898438 773.085938 311.953125 773.578125 C 312.253906 773.625 312.554688 773.648438 312.851562 773.648438 C 315.546875 773.648438 317.925781 771.695312 318.367188 768.941406 Z M 334.738281 774.488281 L 336.046875 767.265625 L 337.351562 760.042969 L 338.890625 751.558594 C 339.441406 748.515625 337.417969 745.605469 334.378906 745.054688 C 331.589844 744.535156 329.011719 746.246094 328.152344 748.859375 C 328.074219 749.101562 327.921875 749.304688 327.875 749.5625 L 326.722656 755.925781 L 325.414062 763.148438 L 321.257812 786.097656 C 320.707031 789.140625 322.730469 792.050781 325.769531 792.601562 C 326.105469 792.664062 326.445312 792.691406 326.773438 792.691406 C 329.429688 792.691406 331.785156 790.796875 332.273438 788.09375 Z M 484.523438 956.609375 L 485.941406 949.523438 L 487.359375 942.433594 L 489.210938 933.160156 C 489.820312 930.132812 487.851562 927.183594 484.820312 926.574219 C 481.8125 925.976562 478.84375 927.933594 478.238281 930.964844 L 478.175781 931.269531 L 476.757812 938.359375 L 475.339844 945.445312 L 470.804688 968.125 C 470.195312 971.152344 472.164062 974.105469 475.195312 974.710938 C 475.5625 974.785156 475.933594 974.820312 476.300781 974.820312 C 478.910156 974.820312 481.25 972.980469 481.78125 970.320312 Z M 499.113281 974.355469 L 500.605469 967.351562 L 502.09375 960.351562 L 503.914062 951.808594 C 504.554688 948.785156 502.625 945.8125 499.601562 945.167969 C 496.644531 944.546875 493.742188 946.398438 493.027344 949.328125 C 493.015625 949.382812 492.972656 949.421875 492.960938 949.476562 L 491.511719 956.296875 L 490.023438 963.296875 L 485.015625 986.832031 C 484.371094 989.855469 486.300781 992.828125 489.324219 993.472656 C 489.71875 993.554688 490.109375 993.597656 490.496094 993.597656 C 493.082031 993.597656 495.40625 991.792969 495.964844 989.164062 Z M 510.144531 1008.003906 L 513.726562 992.121094 L 515.285156 985.203125 L 516.84375 978.289062 L 518.609375 970.453125 C 519.289062 967.4375 517.394531 964.441406 514.382812 963.761719 C 511.546875 963.109375 508.839844 964.777344 507.929688 967.449219 C 507.867188 967.640625 507.734375 967.789062 507.691406 967.992188 L 506.277344 974.253906 L 504.71875 981.167969 L 499.226562 1005.542969 C 498.546875 1008.558594 500.441406 1011.554688 503.457031 1012.234375 C 503.871094 1012.328125 504.285156 1012.375 504.691406 1012.375 C 507.25 1012.375 509.558594 1010.605469 510.144531 1008.003906 Z M 528.355469 1009.90625 L 529.980469 1003.074219 L 531.609375 996.238281 L 533.308594 989.097656 C 534.023438 986.089844 532.167969 983.070312 529.160156 982.355469 C 526.476562 981.703125 523.910156 983.164062 522.84375 985.582031 C 522.707031 985.894531 522.5 986.160156 522.417969 986.503906 L 521.058594 992.222656 L 519.433594 999.058594 L 513.4375 1024.253906 C 512.71875 1027.261719 514.578125 1030.277344 517.585938 1030.996094 C 518.023438 1031.097656 518.457031 1031.148438 518.886719 1031.148438 C 521.417969 1031.148438 523.714844 1029.417969 524.324219 1026.847656 Z M 543.003906 1027.71875 L 544.695312 1020.964844 L 546.386719 1014.207031 L 548.003906 1007.738281 C 548.757812 1004.738281 546.933594 1001.699219 543.9375 1000.949219 C 541.414062 1000.300781 538.957031 1001.550781 537.761719 1003.722656 C 537.53125 1004.140625 537.269531 1004.535156 537.148438 1005.019531 L 535.847656 1010.207031 L 534.15625 1016.960938 L 527.648438 1042.96875 C 526.898438 1045.96875 528.71875 1049.007812 531.71875 1049.757812 C 532.175781 1049.871094 532.632812 1049.925781 533.082031 1049.925781 C 535.589844 1049.925781 537.871094 1048.226562 538.507812 1045.6875 Z M 651.164062 946.195312 L 657.617188 948.941406 L 669.828125 943.546875 L 662.820312 941.03125 Z M 621.148438 964.898438 L 614.746094 962.175781 L 601.046875 968.242188 L 607.726562 970.824219 Z M 1161.707031 719.035156 L 1124.5625 734.070312 L 1128.605469 738.507812 L 1165.792969 723.113281 Z M 1161.707031 719.035156 " fill-opacity="1" fill-rule="nonzero"/><path fill="#596593" d="M 790.789062 453.667969 C 789.058594 451.8125 788.132812 450.484375 787.636719 449.613281 C 790.640625 449.101562 794.996094 449.472656 800.046875 450.710938 C 802.882812 451.40625 805.949219 452.402344 809.113281 453.648438 C 811.601562 454.625 814.148438 455.75 816.710938 457.066406 C 817.128906 457.277344 817.542969 457.527344 817.960938 457.746094 C 817.960938 457.746094 817.960938 457.75 817.960938 457.75 C 820.0625 458.871094 822.15625 460.109375 824.230469 461.457031 C 826.125 462.6875 828 463.984375 829.820312 465.402344 C 832.339844 467.371094 834.753906 469.53125 837.03125 471.855469 C 839.785156 474.671875 842.316406 477.738281 844.507812 481.074219 C 845.433594 482.488281 846.316406 483.941406 847.113281 485.453125 C 847.65625 486.472656 848.109375 487.566406 848.566406 488.648438 C 849.988281 492 851.0625 495.597656 851.789062 499.386719 C 852.328125 502.1875 852.664062 505.085938 852.890625 508.015625 C 852.976562 509.144531 853.054688 510.269531 853.101562 511.40625 C 853.03125 514.496094 852.835938 517.347656 852.550781 520.019531 C 852.167969 523.628906 851.59375 526.84375 850.832031 529.65625 C 849.207031 535.652344 846.765625 539.863281 843.503906 541.972656 C 840.019531 544.21875 835.148438 544.285156 829.015625 542.222656 C 828.984375 540.660156 828.832031 539.101562 828.71875 537.542969 C 828.507812 534.640625 828.171875 531.75 827.703125 528.878906 C 827.09375 525.15625 826.335938 521.460938 825.363281 517.828125 C 824.625 515.074219 823.789062 512.363281 822.882812 509.691406 C 821.671875 506.109375 820.316406 502.628906 818.875 499.234375 C 817.75 496.574219 816.578125 493.980469 815.359375 491.464844 C 813.65625 487.960938 811.902344 484.617188 810.117188 481.449219 C 808.640625 478.828125 807.164062 476.351562 805.695312 474.003906 C 804.640625 472.3125 803.605469 470.703125 802.582031 469.171875 C 801.449219 467.472656 800.355469 465.886719 799.296875 464.402344 C 799.296875 464.402344 799.292969 464.402344 799.292969 464.402344 C 798.972656 463.953125 798.640625 463.472656 798.328125 463.042969 C 797.039062 461.277344 795.84375 459.710938 794.738281 458.324219 C 793.207031 456.398438 791.859375 454.8125 790.828125 453.707031 C 790.816406 453.695312 790.800781 453.679688 790.789062 453.667969 Z M 886.226562 579.757812 C 890.875 583.136719 896.15625 585.46875 902.507812 585.46875 C 902.519531 585.46875 902.535156 585.46875 902.546875 585.46875 C 902.929688 585.46875 903.316406 585.429688 903.703125 585.414062 C 914.175781 584.972656 925.378906 578.988281 930.585938 575.828125 C 931.929688 575.011719 932.867188 574.394531 933.296875 574.105469 C 940.167969 568.023438 944.488281 562.402344 946.542969 558.398438 C 946.570312 558.34375 946.601562 558.28125 946.628906 558.226562 C 946.976562 557.535156 947.332031 556.773438 947.675781 555.929688 C 948.414062 554.113281 949.085938 551.941406 949.515625 549.472656 C 949.59375 549.027344 949.660156 548.566406 949.71875 548.101562 C 949.734375 547.984375 949.746094 547.871094 949.761719 547.753906 C 949.996094 545.757812 950.050781 543.585938 949.847656 541.261719 C 949.796875 540.660156 949.734375 540.054688 949.644531 539.433594 C 949.507812 538.460938 949.316406 537.464844 949.078125 536.445312 C 948.375 533.394531 947.226562 530.148438 945.433594 526.722656 C 944.914062 525.722656 944.339844 524.710938 943.710938 523.683594 C 933.96875 507.835938 919.894531 494.417969 910.332031 489.136719 C 909.117188 488.464844 907.960938 487.90625 906.910156 487.511719 C 906.839844 487.957031 906.789062 488.472656 906.75 489.027344 C 906.714844 489.601562 906.695312 490.222656 906.6875 490.875 C 906.683594 491.707031 906.699219 492.589844 906.734375 493.484375 C 906.816406 495.8125 907.003906 498.1875 907.171875 500.042969 C 907.1875 500.207031 907.203125 500.378906 907.21875 500.53125 C 907.277344 501.183594 907.335938 501.777344 907.378906 502.226562 C 907.382812 502.285156 907.390625 502.332031 907.394531 502.390625 C 907.566406 504.128906 907.714844 505.648438 907.765625 506.757812 C 907.804688 507.605469 907.742188 508.457031 907.738281 509.304688 C 907.738281 509.328125 907.738281 509.347656 907.738281 509.371094 C 907.710938 513.53125 907.167969 517.695312 906.1875 521.808594 C 905.363281 525.253906 904.253906 528.65625 902.925781 531.992188 C 900.925781 537.019531 898.464844 541.863281 895.75 546.433594 C 893.253906 550.644531 890.585938 554.625 887.90625 558.253906 C 884.09375 563.417969 880.320312 567.875 877.136719 571.402344 C 877.738281 572.046875 878.351562 572.6875 878.972656 573.324219 C 881.242188 575.648438 883.628906 577.871094 886.226562 579.757812 Z M 965.925781 655.882812 C 957.523438 655.960938 949.71875 655.710938 942.5 655.210938 C 938.640625 654.941406 934.945312 654.613281 931.425781 654.222656 C 931.421875 654.222656 931.414062 654.222656 931.410156 654.222656 C 926.386719 653.664062 921.691406 653.015625 917.375 652.28125 C 911.347656 651.257812 906.039062 650.117188 901.398438 648.953125 C 896.578125 647.746094 892.460938 646.535156 889.160156 645.433594 C 888.765625 646.070312 888.367188 646.746094 887.960938 647.472656 C 886.683594 649.765625 885.457031 652.40625 884.777344 654.882812 C 884.710938 655.117188 884.621094 655.359375 884.570312 655.589844 C 884.570312 655.589844 884.570312 655.589844 884.570312 655.59375 C 884.105469 657.589844 884.347656 660.3125 885.65625 663.589844 C 886.792969 666.4375 888.746094 669.707031 891.769531 673.292969 C 893.558594 675.417969 895.730469 677.65625 898.324219 679.980469 C 901.246094 682.597656 904.707031 685.324219 908.789062 688.136719 C 910.632812 689.40625 912.605469 690.691406 914.707031 691.988281 C 915.976562 692.558594 917.25 693.128906 918.523438 693.6875 C 923.65625 695.933594 928.820312 698.078125 933.90625 700.085938 C 938.074219 701.734375 942.175781 703.28125 946.175781 704.738281 C 952.191406 706.921875 957.9375 708.878906 963.226562 710.542969 C 968.402344 712.175781 973.136719 713.535156 977.226562 714.574219 C 981.824219 715.738281 985.621094 716.503906 988.320312 716.785156 C 989.246094 716.882812 990.113281 717.019531 990.96875 717.167969 C 994.765625 717.558594 998.175781 717.808594 1001.121094 717.9375 C 1007.203125 718.203125 1011.34375 717.984375 1012.707031 717.484375 C 1014.035156 716.910156 1015.605469 714.984375 1017.28125 712.175781 C 1019.371094 708.664062 1021.625 703.707031 1023.792969 697.972656 C 1025.019531 694.734375 1026.210938 691.277344 1027.332031 687.6875 C 1028.679688 683.378906 1029.910156 678.925781 1030.960938 674.511719 C 1031.753906 671.195312 1032.433594 667.925781 1032.976562 664.769531 C 1033.347656 662.632812 1033.675781 660.53125 1033.90625 658.539062 C 1033.980469 657.886719 1033.992188 657.3125 1034.015625 656.726562 C 1034.078125 655.074219 1033.933594 653.714844 1033.589844 652.664062 C 1033.335938 651.898438 1033.019531 651.242188 1032.554688 650.847656 C 1031.515625 649.964844 1029.761719 649.78125 1028.121094 649.84375 C 1026.902344 649.894531 1025.738281 650.066406 1025.019531 650.269531 C 1024.832031 650.324219 1024.609375 650.375 1024.417969 650.410156 C 1018.605469 651.417969 1013.003906 652.226562 1007.523438 652.9375 C 992.351562 654.898438 978.5 655.765625 965.925781 655.882812 Z M 903.140625 761.894531 C 905.425781 763.3125 907.714844 764.726562 910.101562 766.035156 C 910.140625 766.054688 912.855469 767.402344 917.03125 768.824219 C 918.675781 769.386719 920.546875 769.945312 922.585938 770.449219 C 942.636719 765.273438 961.132812 757.871094 977.417969 748.355469 C 978.148438 747.734375 978.859375 747.132812 979.546875 746.539062 C 986.773438 740.324219 991.753906 735.566406 991.855469 735.464844 C 993.378906 733.765625 994.679688 730.941406 994.386719 730.1875 C 994.351562 730.085938 994.125 729.871094 993.691406 729.609375 C 993.066406 729.238281 991.945312 728.773438 990.121094 728.386719 C 989.277344 728.207031 988.316406 728.042969 987.144531 727.921875 C 984.816406 727.675781 981.660156 727.082031 977.914062 726.210938 C 972.730469 725.003906 966.367188 723.238281 959.222656 720.992188 C 956.9375 720.273438 954.59375 719.515625 952.167969 718.703125 C 950.203125 718.042969 948.1875 717.351562 946.144531 716.632812 C 940.890625 714.789062 935.414062 712.753906 929.835938 710.5625 C 925.933594 709.03125 921.992188 707.421875 918.042969 705.742188 C 913.09375 703.640625 908.144531 701.425781 903.273438 699.125 C 899.671875 697.425781 896.125 695.679688 892.648438 693.886719 C 888.113281 691.550781 883.722656 689.144531 879.53125 686.679688 C 876.660156 684.992188 873.886719 683.277344 871.238281 681.542969 C 870.976562 681.371094 870.71875 681.199219 870.457031 681.023438 C 870.414062 680.996094 870.371094 680.96875 870.328125 680.9375 C 870.214844 680.863281 870.097656 680.785156 869.980469 680.707031 C 868.839844 679.945312 867.730469 679.179688 866.640625 678.410156 C 865.09375 677.320312 863.601562 676.222656 862.167969 675.117188 C 861.230469 674.394531 860.316406 673.667969 859.429688 672.9375 C 858.214844 671.941406 857.058594 670.941406 855.953125 669.9375 C 853.15625 670.789062 848.835938 672.320312 845.601562 674.441406 C 843.953125 675.523438 843.03125 677.28125 842.484375 678.980469 C 842.253906 679.707031 842.070312 680.421875 841.964844 681.070312 C 841.554688 683.523438 841.6875 686.703125 842.371094 690.363281 C 842.402344 690.53125 842.433594 690.699219 842.46875 690.871094 C 842.78125 692.433594 843.210938 694.085938 843.761719 695.832031 C 844.09375 696.871094 844.46875 697.933594 844.886719 699.03125 C 845.140625 699.691406 845.414062 700.359375 845.699219 701.039062 C 846.792969 703.628906 848.101562 706.332031 849.734375 709.1875 C 851.085938 711.550781 852.683594 714.011719 854.445312 716.53125 C 855.234375 717.660156 856.035156 718.796875 856.914062 719.953125 C 858.476562 721.902344 860.117188 723.847656 861.792969 725.796875 C 863.765625 728.089844 865.8125 730.363281 867.9375 732.628906 C 870.722656 735.597656 873.601562 738.539062 876.648438 741.40625 C 878.980469 743.601562 881.390625 745.75 883.875 747.851562 C 887.21875 750.679688 890.714844 753.398438 894.339844 756.007812 C 897.183594 758.054688 900.121094 760.015625 903.140625 761.894531 Z M 902.109375 615.910156 C 902.097656 620.484375 902.4375 624.847656 903.410156 627.082031 C 903.4375 627.144531 903.523438 627.214844 903.554688 627.28125 C 904.488281 629.058594 907.667969 631.109375 912.714844 633.035156 C 917.636719 634.914062 924.359375 636.644531 932.433594 637.890625 C 938.480469 638.828125 945.28125 639.46875 952.730469 639.679688 C 965.882812 640.042969 980.9375 639.03125 997.085938 635.75 C 999.789062 635.199219 1002.515625 634.597656 1005.277344 633.914062 C 1006.988281 633.058594 1008.59375 632.132812 1010.054688 631.125 C 1010.488281 630.828125 1010.894531 630.515625 1011.296875 630.207031 C 1012.878906 628.988281 1014.230469 627.671875 1015.269531 626.238281 C 1016.582031 624.433594 1017.339844 622.4375 1017.488281 620.273438 C 1017.488281 620.257812 1017.492188 620.242188 1017.492188 620.226562 C 1017.519531 619.796875 1017.609375 619.378906 1017.582031 618.933594 C 1017.539062 618.183594 1017.457031 617.398438 1017.390625 616.625 C 1017.246094 614.910156 1017.058594 613.15625 1016.816406 611.359375 C 1016.523438 609.15625 1016.160156 606.914062 1015.734375 604.644531 C 1015.566406 603.761719 1015.398438 602.875 1015.214844 601.984375 C 1015.167969 601.753906 1015.128906 601.527344 1015.078125 601.296875 C 1011.21875 583.050781 1003.746094 564.5625 996.90625 561.710938 C 996.273438 561.449219 995.109375 560.957031 992.847656 562.824219 C 991.992188 563.820312 989.59375 566.4375 985.773438 569.914062 C 985.710938 569.96875 985.65625 570.019531 985.597656 570.074219 C 984.386719 571.171875 983.046875 572.335938 981.542969 573.585938 C 980.792969 574.207031 979.996094 574.84375 979.171875 575.492188 C 978.515625 576.015625 977.847656 576.539062 977.144531 577.074219 C 976.363281 577.671875 975.550781 578.273438 974.710938 578.886719 C 973.257812 579.949219 971.746094 581.023438 970.117188 582.128906 C 969.558594 582.503906 968.9375 582.890625 968.355469 583.269531 C 953.449219 593.058594 931.675781 603.734375 902.351562 609.261719 C 902.203125 611.394531 902.113281 613.660156 902.109375 615.910156 Z M 887.871094 765.21875 C 887.40625 764.886719 886.960938 764.539062 886.5 764.203125 C 886.355469 764.101562 886.210938 763.988281 886.066406 763.894531 C 885.710938 763.695312 883.882812 762.628906 881.023438 760.753906 C 878.210938 758.910156 874.382812 756.257812 869.910156 752.832031 C 867.488281 750.972656 864.886719 748.894531 862.144531 746.578125 C 859.117188 744.015625 855.9375 741.175781 852.683594 738.066406 C 850.492188 735.972656 848.269531 733.753906 846.039062 731.414062 C 843.34375 728.585938 840.640625 725.585938 837.964844 722.40625 C 836.074219 720.15625 834.203125 717.808594 832.359375 715.382812 C 830.230469 712.578125 828.144531 709.65625 826.125 706.617188 C 825.964844 706.375 825.800781 706.136719 825.640625 705.894531 C 824.699219 704.464844 823.777344 703.007812 822.871094 701.527344 C 822.261719 700.53125 821.660156 699.519531 821.066406 698.5 C 820.625 697.742188 820.179688 696.988281 819.75 696.21875 C 818.347656 693.722656 817.015625 691.148438 815.734375 688.515625 C 814.5 685.984375 813.3125 683.40625 812.207031 680.753906 C 810.792969 677.351562 809.5 673.847656 808.332031 670.25 C 808.238281 669.960938 808.128906 669.679688 808.039062 669.390625 L 802.96875 667.851562 C 800.101562 667.386719 797.277344 666.824219 794.492188 666.160156 C 790.152344 665.132812 785.890625 663.9375 781.792969 662.464844 C 781.894531 664.789062 782.023438 667.503906 782.183594 670.550781 C 782.324219 673.265625 782.484375 676.21875 782.671875 679.398438 C 782.886719 683.027344 783.136719 686.925781 783.417969 691.015625 C 783.46875 691.789062 783.527344 692.578125 783.582031 693.367188 C 783.71875 695.28125 783.859375 697.226562 784.011719 699.210938 C 784.027344 699.410156 784.042969 699.609375 784.058594 699.808594 C 784.191406 701.542969 784.335938 703.296875 784.480469 705.066406 C 784.652344 707.144531 784.828125 709.238281 785.015625 711.351562 C 785.277344 714.242188 785.550781 717.15625 785.839844 720.082031 C 786.222656 723.902344 786.632812 727.726562 787.078125 731.527344 C 787.417969 734.433594 787.773438 737.320312 788.148438 740.167969 C 788.660156 744.023438 789.203125 747.808594 789.789062 751.464844 C 790.253906 754.386719 790.742188 757.230469 791.257812 759.964844 C 791.996094 763.890625 792.785156 767.59375 793.632812 771.003906 C 793.917969 772.152344 794.207031 773.265625 794.503906 774.34375 C 797.996094 774.941406 801.515625 775.464844 805.046875 775.957031 C 806.035156 776.09375 807.015625 776.265625 808.007812 776.398438 C 815.773438 777.410156 823.472656 778.074219 831.121094 778.546875 C 839.070312 779.03125 846.945312 779.246094 854.71875 779.15625 C 861.152344 779.082031 867.507812 778.800781 873.785156 778.339844 C 882.074219 775.6875 888.777344 773.175781 891.820312 771.3125 C 892.566406 770.855469 892.753906 770.566406 892.753906 770.5625 C 892.648438 769.902344 891.34375 768.316406 889.617188 766.714844 C 889.070312 766.207031 888.480469 765.703125 887.871094 765.21875 Z M 746.683594 689.226562 C 746.925781 687.152344 747.234375 685.160156 747.570312 683.21875 C 747.589844 683.101562 747.613281 682.984375 747.632812 682.867188 C 747.972656 680.957031 748.339844 679.09375 748.75 677.3125 C 749.359375 674.683594 750.03125 672.195312 750.75 669.871094 C 751.964844 665.9375 753.285156 662.476562 754.574219 659.484375 C 755.171875 658.105469 755.761719 656.804688 756.328125 655.636719 L 750.144531 655.636719 C 748.621094 657.191406 746.003906 659.933594 742.558594 663.769531 C 741.304688 665.167969 739.917969 666.742188 738.441406 668.441406 C 737.292969 669.761719 736.097656 671.15625 734.824219 672.660156 C 733.714844 673.976562 732.582031 675.324219 731.386719 676.777344 C 731.363281 676.804688 731.34375 676.828125 731.320312 676.855469 C 728.207031 680.632812 724.820312 684.863281 721.203125 689.5625 C 720.195312 690.871094 719.214844 692.089844 718.21875 693.355469 C 715.140625 697.257812 712.105469 701.027344 709.222656 704.566406 C 708.824219 705.054688 708.453125 705.515625 708.0625 705.996094 C 703.265625 711.890625 698.925781 717.316406 695.371094 722.40625 C 692.597656 726.378906 690.335938 730.15625 688.746094 733.789062 C 688.210938 735.015625 687.777344 736.226562 687.40625 737.421875 C 690.664062 739.203125 693.96875 740.933594 697.320312 742.617188 C 700.867188 744.398438 704.46875 746.121094 708.117188 747.792969 C 713.070312 750.058594 718.109375 752.230469 723.238281 754.285156 C 727.277344 755.902344 731.359375 757.460938 735.5 758.9375 C 736.742188 759.382812 738.003906 759.804688 739.257812 760.238281 C 746.550781 760.835938 752.632812 760.886719 755.746094 760.296875 C 756.441406 760.167969 757.652344 759.855469 757.9375 759.238281 C 758.578125 757.835938 757.695312 754.359375 756.363281 751.5 C 756.109375 750.957031 755.847656 750.429688 755.570312 749.953125 C 755.324219 749.527344 755.128906 749.058594 754.996094 748.585938 L 753.609375 743.457031 L 750.683594 732.617188 L 748.457031 724.386719 L 747.375 720.386719 C 747.324219 720.179688 747.28125 719.96875 747.246094 719.757812 C 746.910156 717.53125 746.664062 715.359375 746.460938 713.214844 C 746.171875 710.183594 746.003906 707.234375 745.953125 704.371094 C 745.875 700.164062 746.042969 696.15625 746.382812 692.335938 C 746.472656 691.289062 746.566406 690.242188 746.683594 689.226562 Z M 755.367188 563.691406 C 761.265625 560.378906 768.105469 557.972656 775.550781 556.496094 C 781.132812 555.386719 787.023438 554.761719 793.152344 554.761719 C 797.535156 554.761719 802.015625 555.054688 806.554688 555.648438 C 807.640625 555.789062 808.695312 556.007812 809.769531 556.179688 C 813.515625 556.785156 817.203125 557.53125 820.785156 558.488281 C 822.226562 558.875 823.625 559.324219 825.035156 559.761719 C 830.554688 561.480469 835.839844 563.574219 840.78125 566.03125 C 843.84375 567.554688 846.757812 569.21875 849.546875 570.984375 C 849.863281 571.183594 850.171875 571.390625 850.484375 571.59375 C 854.179688 573.996094 857.601562 576.589844 860.722656 579.351562 C 860.847656 579.464844 860.972656 579.578125 861.101562 579.695312 C 863.484375 581.832031 865.746094 584.039062 867.734375 586.351562 C 870.355469 589.390625 872.605469 592.566406 874.460938 595.835938 C 875.902344 598.375 877.023438 600.980469 877.957031 603.617188 C 878.292969 604.5625 878.660156 605.503906 878.925781 606.460938 C 879.09375 607.066406 879.175781 607.679688 879.316406 608.285156 C 879.800781 610.40625 880.105469 612.542969 880.230469 614.6875 C 880.269531 615.390625 880.378906 616.085938 880.378906 616.789062 C 880.378906 619.230469 880.113281 621.613281 879.613281 623.929688 C 879.496094 624.472656 879.332031 625 879.1875 625.535156 C 878.703125 627.34375 878.09375 629.113281 877.300781 630.824219 C 876.921875 631.644531 876.480469 632.441406 876.03125 633.238281 C 875.535156 634.121094 874.992188 634.984375 874.414062 635.832031 C 874.21875 636.117188 874.027344 636.402344 873.824219 636.683594 C 873.421875 637.242188 873 637.789062 872.558594 638.328125 C 871.140625 640.074219 869.570312 641.75 867.78125 643.324219 C 863.410156 647.160156 858.054688 650.222656 852.105469 652.617188 C 852.101562 652.617188 852.101562 652.621094 852.097656 652.621094 C 850.175781 653.394531 848.195312 654.089844 846.140625 654.703125 L 817.148438 658.085938 L 816.773438 658.128906 C 813.882812 657.992188 810.957031 657.738281 808.007812 657.351562 C 807.199219 657.246094 806.417969 657.078125 805.617188 656.957031 C 801.597656 656.339844 797.648438 655.542969 793.8125 654.519531 C 789.316406 653.316406 784.980469 651.832031 780.8125 650.132812 C 779.332031 649.527344 777.894531 648.882812 776.464844 648.222656 C 773.136719 646.683594 769.90625 645.039062 766.871094 643.21875 C 763.804688 641.375 760.953125 639.367188 758.234375 637.273438 C 754.765625 634.605469 751.613281 631.753906 748.800781 628.753906 C 746.691406 626.5 744.722656 624.1875 743.03125 621.785156 C 740.777344 618.585938 738.910156 615.273438 737.480469 611.882812 C 736.359375 609.207031 735.589844 606.480469 735.03125 603.730469 C 734.589844 601.550781 734.304688 599.355469 734.246094 597.148438 C 734.238281 596.835938 734.179688 596.523438 734.179688 596.210938 C 734.179688 594.804688 734.28125 593.421875 734.449219 592.054688 C 734.472656 591.84375 734.523438 591.636719 734.554688 591.425781 C 734.816406 589.5625 735.226562 587.738281 735.796875 585.960938 C 736.226562 584.617188 736.722656 583.292969 737.328125 582.007812 C 739.449219 577.488281 742.613281 573.335938 746.777344 569.679688 C 749.335938 567.433594 752.230469 565.453125 755.367188 563.691406 Z M 818.515625 645.996094 C 818.59375 649.039062 821.085938 651.453125 824.109375 651.453125 C 824.15625 651.453125 824.203125 651.453125 824.257812 651.449219 C 835.0625 651.175781 845.382812 648.730469 854.160156 644.34375 C 859.511719 641.574219 863.859375 638.183594 867.070312 634.289062 C 867.175781 634.160156 867.25 634.015625 867.355469 633.882812 C 868.597656 632.335938 869.617188 630.671875 870.507812 628.949219 C 870.871094 628.234375 871.265625 627.53125 871.570312 626.800781 C 871.984375 625.789062 872.285156 624.75 872.574219 623.710938 C 873.101562 621.824219 873.496094 619.914062 873.585938 617.988281 C 873.597656 617.683594 873.554688 617.371094 873.554688 617.066406 C 873.585938 613.433594 872.9375 609.695312 871.542969 605.902344 C 871.023438 604.484375 870.414062 603.0625 869.703125 601.640625 C 869.136719 600.480469 868.507812 599.335938 867.824219 598.203125 C 865.914062 595.042969 863.53125 591.960938 860.625 588.886719 C 860.582031 588.839844 860.546875 588.796875 860.503906 588.753906 C 858.398438 586.5 856.042969 584.398438 853.578125 582.375 C 850.117188 579.535156 846.351562 576.902344 842.21875 574.539062 C 840.136719 573.347656 837.996094 572.203125 835.75 571.136719 C 832.964844 569.820312 829.617188 571.003906 828.292969 573.800781 C 827.410156 575.667969 827.730469 577.730469 828.816406 579.320312 C 829.355469 580.109375 830.027344 580.816406 830.957031 581.257812 C 834.53125 582.949219 837.804688 584.863281 840.882812 586.902344 C 843.769531 588.816406 846.441406 590.871094 848.871094 593.078125 C 850.074219 594.171875 851.269531 595.269531 852.359375 596.429688 C 854.164062 598.328125 855.675781 600.195312 856.972656 602.070312 C 858.011719 603.570312 858.917969 605.070312 859.664062 606.597656 C 860.1875 607.636719 860.621094 608.65625 860.996094 609.664062 C 862.023438 612.429688 862.5 615.058594 862.398438 617.503906 C 862.351562 618.582031 862.125 619.664062 861.824219 620.742188 C 861.769531 620.933594 861.703125 621.125 861.640625 621.316406 C 861.132812 622.894531 860.363281 624.425781 859.355469 625.871094 C 859.054688 626.300781 858.78125 626.742188 858.441406 627.152344 C 857.476562 628.324219 856.3125 629.429688 855.027344 630.480469 C 853.300781 631.890625 851.335938 633.203125 849.085938 634.367188 C 841.835938 637.988281 833.152344 640.027344 823.96875 640.257812 C 820.988281 640.335938 818.660156 642.75 818.570312 645.695312 C 818.566406 645.800781 818.511719 645.890625 818.515625 645.996094 Z M 802.015625 567.367188 C 801.980469 567.570312 802.046875 567.761719 802.035156 567.960938 C 801.875 570.777344 803.773438 573.335938 806.621094 573.808594 L 810.058594 574.382812 C 810.367188 574.433594 810.679688 574.460938 810.984375 574.460938 C 813.671875 574.460938 816.039062 572.519531 816.5 569.78125 C 816.914062 567.28125 815.5625 564.972656 813.394531 563.910156 C 812.917969 563.679688 812.445312 563.433594 811.894531 563.339844 L 808.457031 562.769531 C 805.410156 562.246094 802.527344 564.316406 802.015625 567.367188 Z M 798.0625 643.21875 C 798.019531 643.476562 798.097656 643.71875 798.089844 643.972656 C 798.015625 646.722656 799.875 649.195312 802.667969 649.660156 L 805.925781 650.203125 L 806.105469 650.230469 C 806.414062 650.285156 806.726562 650.308594 807.03125 650.308594 C 808.679688 650.308594 810.148438 649.519531 811.1875 648.324219 C 811.84375 647.570312 812.371094 646.691406 812.546875 645.632812 C 812.949219 643.214844 811.703125 640.953125 809.664062 639.847656 C 809.132812 639.558594 808.574219 639.296875 807.941406 639.191406 L 804.503906 638.617188 C 801.457031 638.09375 798.574219 640.167969 798.0625 643.21875 Z M 760.398438 568.65625 C 755.289062 571.300781 751.121094 574.527344 747.949219 578.21875 C 747.804688 578.386719 747.632812 578.542969 747.492188 578.710938 C 745.214844 581.453125 743.554688 584.5625 742.445312 587.796875 C 742.265625 588.320312 742.101562 588.847656 741.953125 589.378906 C 741.601562 590.664062 741.359375 591.957031 741.207031 593.261719 C 741.136719 593.84375 741 594.425781 740.972656 595.007812 C 740.917969 596.335938 740.960938 597.683594 741.101562 599.042969 C 741.179688 599.828125 741.359375 600.628906 741.507812 601.425781 C 741.996094 604.09375 742.851562 606.804688 744.0625 609.535156 C 744.332031 610.144531 744.550781 610.75 744.855469 611.359375 C 746.1875 614.085938 747.882812 616.730469 749.886719 619.34375 C 751.144531 620.984375 752.503906 622.621094 754.054688 624.25 C 754.675781 624.914062 755.394531 625.523438 756.046875 626.167969 C 759.066406 629.148438 762.382812 631.941406 766.050781 634.484375 C 768.996094 636.527344 772.183594 638.390625 775.523438 640.132812 C 776.625 640.707031 777.671875 641.324219 778.8125 641.863281 C 779.585938 642.230469 780.402344 642.40625 781.207031 642.40625 C 783.300781 642.40625 785.3125 641.222656 786.269531 639.203125 C 786.738281 638.210938 786.789062 637.171875 786.667969 636.160156 C 786.449219 634.3125 785.410156 632.601562 783.605469 631.746094 C 782.21875 631.089844 780.929688 630.359375 779.613281 629.652344 C 775.34375 627.339844 771.457031 624.761719 767.992188 621.910156 C 765.929688 620.210938 763.960938 618.453125 762.199219 616.570312 C 761.808594 616.15625 761.46875 615.75 761.105469 615.34375 C 758.429688 612.363281 756.371094 609.433594 754.894531 606.402344 C 754.785156 606.1875 754.714844 605.984375 754.617188 605.773438 C 754.070312 604.625 753.628906 603.503906 753.269531 602.398438 C 752.722656 600.742188 752.367188 599.136719 752.238281 597.597656 C 752.199219 597.15625 752.191406 596.726562 752.1875 596.292969 C 752.1875 596.03125 752.148438 595.753906 752.160156 595.496094 C 752.230469 593.917969 752.601562 592.320312 753.207031 590.765625 C 753.882812 589.042969 754.851562 587.371094 756.117188 585.847656 C 756.777344 585.046875 757.535156 584.28125 758.347656 583.535156 C 760.316406 581.726562 762.695312 580.070312 765.472656 578.632812 C 772.058594 575.34375 779.855469 573.441406 788.105469 572.929688 C 788.9375 572.875 789.75 572.761719 790.59375 572.742188 C 792.335938 572.695312 793.808594 571.8125 794.800781 570.539062 C 795.570312 569.554688 796.082031 568.351562 796.046875 567.003906 C 795.992188 564.863281 794.710938 563.082031 792.917969 562.1875 C 792.167969 561.808594 791.351562 561.546875 790.453125 561.546875 C 790.40625 561.546875 790.359375 561.546875 790.304688 561.550781 C 779.5 561.824219 769.183594 564.269531 760.398438 568.65625 Z M 354.6875 885.328125 L 393.058594 934.542969 L 393.351562 934.917969 L 396.011719 925.824219 L 357.855469 874.691406 Z M 1183.359375 826.816406 L 1164.425781 834.707031 C 1162.304688 835.589844 1159.855469 835.085938 1158.25 833.429688 L 1141.953125 816.566406 C 1140.683594 815.246094 1140.136719 813.378906 1140.492188 811.578125 C 1140.851562 809.777344 1142.074219 808.265625 1143.761719 807.535156 L 1157.941406 801.402344 L 1145.875 787.316406 L 607.742188 1040.191406 L 619.191406 1054.257812 L 686.65625 1023.9375 C 687.394531 1023.605469 688.175781 1023.445312 688.945312 1023.445312 C 690.601562 1023.445312 692.21875 1024.179688 693.308594 1025.535156 L 718.824219 1057.230469 L 745.574219 1044.375 L 724.757812 1016.378906 C 723.746094 1015.011719 723.402344 1013.261719 723.835938 1011.617188 C 724.269531 1009.972656 725.421875 1008.613281 726.976562 1007.925781 L 742.40625 1001.066406 C 744.664062 1000.066406 747.308594 1000.65625 748.925781 1002.527344 L 769.238281 1026.132812 L 809.816406 1007.253906 L 804.03125 999.929688 C 802.925781 998.53125 802.554688 996.6875 803.027344 994.96875 C 803.503906 993.25 804.765625 991.863281 806.433594 991.226562 L 820.722656 985.796875 C 822.847656 984.984375 825.273438 985.550781 826.832031 987.238281 L 832.667969 993.574219 L 1117.609375 857.78125 L 1114.355469 854.121094 C 1113.144531 852.757812 1112.675781 850.894531 1113.09375 849.121094 C 1113.507812 847.347656 1114.761719 845.886719 1116.457031 845.210938 L 1129.605469 839.921875 C 1131.683594 839.078125 1134.085938 839.574219 1135.679688 841.1875 L 1152.140625 857.894531 L 1194.3125 837.207031 Z M 619.652344 686.679688 C 620.871094 687.9375 622.066406 689.203125 623.324219 690.445312 C 624.765625 691.273438 626.21875 692.074219 627.671875 692.84375 C 628.726562 693.402344 629.78125 693.949219 630.828125 694.46875 C 639.300781 698.648438 645.15625 696.882812 647.558594 695.730469 C 649.046875 691.617188 650.71875 687.707031 652.53125 683.980469 C 654.453125 680.023438 656.542969 676.277344 658.757812 672.738281 C 662.503906 666.757812 666.625 661.382812 670.925781 656.515625 C 675.691406 651.117188 680.679688 646.378906 685.667969 642.238281 C 691.527344 637.375 697.367188 633.308594 702.796875 630 C 672.382812 640.113281 623.132812 658.515625 603.511719 668.199219 C 604.1875 669.066406 604.902344 669.921875 605.597656 670.78125 C 607.476562 673.121094 609.410156 675.441406 611.410156 677.734375 C 614.054688 680.761719 616.804688 683.742188 619.652344 686.679688 Z M 643.3125 582.730469 C 635.324219 582.335938 627.535156 582.089844 620.160156 581.964844 C 607.316406 581.742188 595.722656 581.863281 586.492188 582.082031 C 580.308594 582.230469 575.175781 582.421875 571.457031 582.585938 L 572.601562 587.035156 L 575.402344 597.917969 L 576.257812 601.25 C 577.292969 603.15625 578.523438 604.496094 579.988281 605.308594 C 580.496094 605.589844 581.027344 605.808594 581.585938 605.964844 C 586.359375 607.289062 592.625 604.226562 594.644531 602.9375 C 613.269531 591.839844 637.4375 586.351562 659.832031 583.769531 C 654.273438 583.335938 648.753906 583.003906 643.3125 582.730469 Z M 671.621094 460.367188 C 674.164062 462.183594 679.355469 465.339844 685.921875 469.332031 C 691.609375 472.789062 698.324219 476.875 705.550781 481.4375 C 707.554688 482.703125 709.597656 484 711.667969 485.335938 C 713.652344 486.613281 715.664062 487.925781 717.691406 489.265625 C 719.0625 490.167969 720.441406 491.089844 721.824219 492.019531 C 721.828125 492.019531 721.828125 492.019531 721.828125 492.019531 C 723.730469 493.296875 725.636719 494.597656 727.550781 495.921875 C 729.425781 497.214844 731.296875 498.53125 733.167969 499.863281 C 735.953125 501.847656 738.722656 503.867188 741.464844 505.925781 C 745.019531 508.597656 748.519531 511.320312 751.902344 514.089844 C 754.464844 516.1875 756.929688 518.320312 759.34375 520.460938 C 762.558594 523.3125 765.609375 526.191406 768.460938 529.09375 C 769.578125 530.230469 770.699219 531.367188 771.75 532.507812 C 771.046875 531.289062 770.304688 530.019531 769.53125 528.710938 C 767.714844 525.65625 765.683594 522.371094 763.496094 518.976562 C 761.960938 516.59375 760.351562 514.160156 758.648438 511.683594 C 756.5 508.5625 754.21875 505.394531 751.824219 502.234375 C 750.035156 499.871094 748.179688 497.519531 746.265625 495.191406 C 745 493.65625 743.710938 492.132812 742.394531 490.628906 C 741.0625 489.109375 739.707031 487.609375 738.324219 486.136719 C 737.457031 485.214844 736.570312 484.3125 735.683594 483.414062 C 734.195312 481.902344 732.683594 480.429688 731.144531 479.003906 C 729.542969 477.515625 727.921875 476.078125 726.269531 474.699219 C 723.128906 472.078125 719.90625 469.652344 716.601562 467.535156 C 697.871094 455.515625 682.542969 454.199219 674.4375 456.964844 C 671.578125 457.945312 670.585938 459.144531 670.445312 459.464844 C 670.453125 459.453125 670.460938 459.449219 670.476562 459.449219 C 670.585938 459.449219 670.910156 459.855469 671.621094 460.367188 Z M 268.503906 774.789062 L 304.582031 821.066406 L 306.675781 810.449219 L 270.226562 764.070312 Z M 606.96875 517.535156 C 608.519531 517.617188 610.136719 517.730469 611.734375 517.832031 C 612.796875 517.898438 613.828125 517.945312 614.894531 518.03125 C 618.597656 518.332031 622.175781 518.75 625.773438 519.15625 C 630.71875 519.710938 635.554688 520.355469 640.292969 521.085938 C 640.296875 521.085938 640.296875 521.085938 640.296875 521.085938 C 644.125 521.675781 647.878906 522.316406 651.574219 523.007812 C 655.1875 523.6875 658.769531 524.378906 662.25 525.144531 C 666.0625 525.980469 669.847656 526.835938 673.492188 527.761719 C 670.578125 526.582031 667.582031 525.441406 664.539062 524.328125 C 661.769531 523.316406 658.957031 522.335938 656.09375 521.398438 C 653.15625 520.433594 650.171875 519.515625 647.148438 518.644531 C 643.542969 517.605469 639.871094 516.660156 636.152344 515.78125 C 632.53125 514.921875 628.859375 514.15625 625.144531 513.472656 C 621.097656 512.726562 617.007812 512.082031 612.863281 511.578125 C 608.992188 511.109375 605.097656 510.714844 601.160156 510.488281 C 597.625 511.710938 593.757812 514.035156 592.792969 515.882812 C 593.710938 516.25 595.199219 516.535156 596.9375 516.757812 C 600.035156 517.160156 603.941406 517.371094 606.96875 517.535156 Z M 508.109375 1082.105469 L 497.367188 1086.535156 L 493.582031 1088.101562 L 491.972656 1094.582031 L 491.820312 1095.199219 L 501.128906 1091.359375 L 506.496094 1089.144531 L 509.304688 1087.984375 L 510.121094 1084.691406 L 511.066406 1080.882812 Z M 508.109375 1082.105469 " fill-opacity="1" fill-rule="nonzero"/></svg>